<svg xmlns="http://www.w3.org/2000/svg" xmlns:xlink="http://www.w3.org/1999/xlink" zoomAndPan="magnify" preserveAspectRatio="xMidYMid meet" version="1.0" viewBox="0 117.54 372.64 139.93"><defs><g/><clipPath id="6469a9bb1f"><path d="M 0 117.535156 L 139.140625 117.535156 L 139.140625 256.675781 L 0 256.675781 Z M 0 117.535156 " clip-rule="nonzero"/></clipPath><clipPath id="cbe6a58724"><path d="M 69.570312 117.535156 C 31.148438 117.535156 0 148.683594 0 187.105469 C 0 225.527344 31.148438 256.675781 69.570312 256.675781 C 107.992188 256.675781 139.140625 225.527344 139.140625 187.105469 C 139.140625 148.683594 107.992188 117.535156 69.570312 117.535156 Z M 69.570312 117.535156 " clip-rule="nonzero"/></clipPath><clipPath id="884afb799e"><path d="M 0 117.535156 L 139.574219 117.535156 L 139.574219 257.113281 L 0 257.113281 Z M 0 117.535156 " clip-rule="nonzero"/></clipPath><clipPath id="6584adbb33"><path d="M 107 189 L 139.574219 189 L 139.574219 208 L 107 208 Z M 107 189 " clip-rule="nonzero"/></clipPath><clipPath id="435f1b8e36"><path d="M 68 117.535156 L 79 117.535156 L 79 160 L 68 160 Z M 68 117.535156 " clip-rule="nonzero"/></clipPath></defs><g clip-path="url(#6469a9bb1f)"><g clip-path="url(#cbe6a58724)"><path fill="#423d42" d="M 0 117.535156 L 139.140625 117.535156 L 139.140625 256.675781 L 0 256.675781 Z M 0 117.535156 " fill-opacity="1" fill-rule="nonzero"/></g></g><path fill="#ffffff" d="M 93.941406 225.164062 C 93.632812 225.164062 93.382812 224.914062 93.382812 224.605469 L 93.382812 220.300781 C 93.382812 219.992188 93.632812 219.738281 93.941406 219.738281 C 94.246094 219.738281 94.5 219.992188 94.5 220.300781 L 94.5 224.605469 C 94.5 224.914062 94.246094 225.164062 93.941406 225.164062 Z M 93.941406 225.164062 " fill-opacity="1" fill-rule="nonzero"/><path fill="#ffffff" d="M 93.941406 212.722656 C 93.632812 212.722656 93.382812 212.46875 93.382812 212.160156 L 93.382812 169.042969 C 93.382812 168.734375 93.632812 168.484375 93.941406 168.484375 C 94.246094 168.484375 94.5 168.734375 94.5 169.042969 L 94.5 212.160156 C 94.5 212.46875 94.246094 212.722656 93.941406 212.722656 Z M 93.941406 212.722656 " fill-opacity="1" fill-rule="nonzero"/><path fill="#ffffff" d="M 89.523438 170.636719 L 89.523438 173.65625 C 89.523438 173.964844 89.269531 174.21875 88.960938 174.21875 C 88.65625 174.21875 88.402344 173.964844 88.402344 173.65625 L 88.402344 170.636719 C 88.402344 170.328125 88.65625 170.078125 88.960938 170.078125 C 89.269531 170.078125 89.523438 170.328125 89.523438 170.636719 Z M 89.523438 170.636719 " fill-opacity="1" fill-rule="nonzero"/><path fill="#ffffff" d="M 93.941406 174.21875 L 88.960938 174.21875 C 88.65625 174.21875 88.402344 173.964844 88.402344 173.65625 C 88.402344 173.351562 88.65625 173.097656 88.960938 173.097656 L 93.941406 173.097656 C 94.246094 173.097656 94.5 173.351562 94.5 173.65625 C 94.5 173.964844 94.246094 174.21875 93.941406 174.21875 Z M 93.941406 174.21875 " fill-opacity="1" fill-rule="nonzero"/><path fill="#ffffff" d="M 93.941406 171.195312 L 88.960938 171.195312 C 88.65625 171.195312 88.402344 170.945312 88.402344 170.636719 C 88.402344 170.328125 88.65625 170.078125 88.960938 170.078125 L 93.941406 170.078125 C 94.246094 170.078125 94.5 170.328125 94.5 170.636719 C 94.5 170.945312 94.246094 171.195312 93.941406 171.195312 Z M 93.941406 171.195312 " fill-opacity="1" fill-rule="nonzero"/><path fill="#ffffff" d="M 93.941406 181.125 C 93.746094 181.125 93.578125 181.039062 93.464844 180.84375 C 93.296875 180.59375 93.382812 180.230469 93.660156 180.0625 L 100.847656 175.644531 C 101.097656 175.476562 101.460938 175.558594 101.628906 175.839844 C 101.796875 176.089844 101.714844 176.453125 101.433594 176.621094 L 94.246094 181.039062 C 94.136719 181.09375 94.050781 181.125 93.941406 181.125 Z M 93.941406 181.125 " fill-opacity="1" fill-rule="nonzero"/><path fill="#ffffff" d="M 115.582031 220.523438 L 97.742188 220.523438 C 97.433594 220.523438 97.183594 220.269531 97.183594 219.964844 C 97.183594 219.65625 97.433594 219.40625 97.742188 219.40625 L 115.582031 219.40625 C 115.890625 219.40625 116.140625 219.65625 116.140625 219.964844 C 116.140625 220.269531 115.890625 220.523438 115.582031 220.523438 Z M 115.582031 220.523438 " fill-opacity="1" fill-rule="nonzero"/><path fill="#ffffff" d="M 109.097656 210.566406 L 93.941406 210.566406 C 93.632812 210.566406 93.382812 210.316406 93.382812 210.007812 C 93.382812 209.703125 93.632812 209.449219 93.941406 209.449219 L 109.097656 209.449219 C 109.402344 209.449219 109.65625 209.703125 109.65625 210.007812 C 109.65625 210.316406 109.402344 210.566406 109.097656 210.566406 Z M 109.097656 210.566406 " fill-opacity="1" fill-rule="nonzero"/><path fill="#ffffff" d="M 105.320312 200.585938 L 93.941406 200.585938 C 93.632812 200.585938 93.382812 200.332031 93.382812 200.027344 C 93.382812 199.71875 93.632812 199.46875 93.941406 199.46875 L 105.320312 199.46875 C 105.628906 199.46875 105.878906 199.71875 105.878906 200.027344 C 105.878906 200.332031 105.628906 200.585938 105.320312 200.585938 Z M 105.320312 200.585938 " fill-opacity="1" fill-rule="nonzero"/><path fill="#ffffff" d="M 101.546875 190.601562 L 93.941406 190.601562 C 93.632812 190.601562 93.382812 190.351562 93.382812 190.042969 C 93.382812 189.734375 93.632812 189.484375 93.941406 189.484375 L 101.546875 189.484375 C 101.855469 189.484375 102.105469 189.734375 102.105469 190.042969 C 102.105469 190.351562 101.855469 190.601562 101.546875 190.601562 Z M 101.546875 190.601562 " fill-opacity="1" fill-rule="nonzero"/><path fill="#ffffff" d="M 112.871094 220.523438 C 112.648438 220.523438 112.421875 220.382812 112.339844 220.160156 L 96.652344 178.746094 C 96.539062 178.46875 96.679688 178.132812 96.988281 178.019531 C 97.269531 177.90625 97.601562 178.046875 97.714844 178.355469 L 113.402344 219.769531 C 113.515625 220.046875 113.375 220.382812 113.066406 220.496094 C 113.011719 220.523438 112.925781 220.523438 112.871094 220.523438 Z M 112.871094 220.523438 " fill-opacity="1" fill-rule="nonzero"/><path fill="#ffffff" d="M 101.125 225.164062 C 101.015625 225.164062 100.875 225.136719 100.792969 225.054688 C 92.988281 218.84375 85.132812 218.285156 79.902344 218.902344 C 74.226562 219.570312 70.3125 221.753906 70.285156 221.753906 C 70.089844 221.863281 69.863281 221.835938 69.695312 221.726562 C 69.527344 221.613281 69.417969 221.390625 69.472656 221.164062 C 71.429688 210.121094 77.890625 200.277344 82.949219 193.929688 C 88.429688 187.078125 93.546875 182.773438 93.578125 182.71875 C 93.773438 182.550781 94.050781 182.550781 94.246094 182.691406 C 94.445312 182.828125 94.554688 183.109375 94.472656 183.332031 C 90.109375 195.914062 92.261719 206.375 94.835938 212.890625 C 97.632812 219.992188 101.519531 224.15625 101.546875 224.214844 C 101.742188 224.4375 101.742188 224.773438 101.546875 224.96875 C 101.433594 225.109375 101.292969 225.164062 101.125 225.164062 Z M 83.175781 217.585938 C 87.507812 217.585938 92.878906 218.566406 98.359375 221.976562 C 96.988281 219.992188 95.253906 217.082031 93.800781 213.363281 C 91.285156 206.988281 89.160156 197.007812 92.765625 184.984375 C 88.097656 189.34375 74.226562 203.464844 70.757812 220.269531 C 72.324219 219.542969 75.511719 218.285156 79.707031 217.78125 C 80.796875 217.671875 81.945312 217.585938 83.175781 217.585938 Z M 83.175781 217.585938 " fill-opacity="1" fill-rule="nonzero"/><path fill="#ffffff" d="M 112.871094 231.398438 C 112.730469 231.398438 112.5625 231.34375 112.453125 231.234375 C 112.226562 231.007812 112.253906 230.644531 112.480469 230.449219 L 117.988281 225.21875 C 89.746094 226.730469 72.773438 222.816406 66.957031 221.109375 L 76.492188 230.449219 C 76.714844 230.671875 76.714844 231.007812 76.492188 231.234375 C 76.269531 231.457031 75.933594 231.457031 75.707031 231.234375 L 64.46875 220.242188 C 64.273438 220.046875 64.242188 219.769531 64.382812 219.542969 C 64.523438 219.320312 64.804688 219.238281 65.054688 219.320312 C 65.222656 219.375 83.257812 226.144531 119.441406 223.988281 C 119.664062 223.988281 119.890625 224.101562 120 224.324219 C 120.085938 224.550781 120.058594 224.800781 119.863281 224.941406 L 113.261719 231.203125 C 113.152344 231.371094 113.011719 231.398438 112.871094 231.398438 Z M 112.871094 231.398438 " fill-opacity="1" fill-rule="nonzero"/><path fill="#ffffff" d="M 134.457031 213.699219 L 110.269531 213.699219 C 109.960938 213.699219 109.710938 213.449219 109.710938 213.140625 C 109.710938 212.832031 109.960938 212.582031 110.269531 212.582031 L 134.457031 212.582031 C 134.765625 212.582031 135.015625 212.832031 135.015625 213.140625 C 135.015625 213.449219 134.765625 213.699219 134.457031 213.699219 Z M 134.457031 213.699219 " fill-opacity="1" fill-rule="nonzero"/><path fill="#ffffff" d="M 72.269531 213.699219 L 5.496094 213.699219 C 5.1875 213.699219 4.933594 213.449219 4.933594 213.140625 C 4.933594 212.832031 5.1875 212.582031 5.496094 212.582031 L 72.296875 212.582031 C 72.605469 212.582031 72.855469 212.832031 72.855469 213.140625 C 72.855469 213.449219 72.578125 213.699219 72.269531 213.699219 Z M 72.269531 213.699219 " fill-opacity="1" fill-rule="nonzero"/><g clip-path="url(#884afb799e)"><path fill="#ffffff" d="M 69.976562 257.460938 C 51.296875 257.460938 33.738281 250.191406 20.539062 236.964844 C 7.339844 223.738281 0.0429688 206.207031 0.0429688 187.527344 C 0.0429688 183.164062 0.460938 178.773438 1.246094 174.523438 C 1.832031 171.363281 2.640625 168.234375 3.675781 165.183594 C 13.269531 136.71875 39.917969 117.59375 69.976562 117.59375 C 88.65625 117.59375 106.214844 124.863281 119.414062 138.0625 C 132.613281 151.257812 139.882812 168.820312 139.882812 187.5 C 139.882812 206.179688 132.613281 223.738281 119.414062 236.9375 C 106.214844 250.191406 88.65625 257.460938 69.976562 257.460938 Z M 69.976562 118.710938 C 40.390625 118.710938 14.191406 137.53125 4.738281 165.546875 C 3.734375 168.539062 2.921875 171.617188 2.335938 174.71875 C 1.550781 178.914062 1.132812 183.222656 1.132812 187.527344 C 1.132812 225.472656 32.003906 256.34375 69.949219 256.34375 C 107.894531 256.34375 138.765625 225.472656 138.765625 187.527344 C 138.792969 149.582031 107.921875 118.710938 69.976562 118.710938 Z M 69.976562 118.710938 " fill-opacity="1" fill-rule="nonzero"/></g><g clip-path="url(#6584adbb33)"><path fill="#ffffff" d="M 107.976562 207.632812 C 107.894531 207.632812 107.808594 207.605469 107.726562 207.578125 C 107.445312 207.4375 107.335938 207.101562 107.472656 206.820312 C 108.675781 204.445312 111.082031 202.992188 113.738281 202.992188 C 114.269531 202.992188 114.773438 203.046875 115.277344 203.15625 C 115.945312 201.367188 117.792969 200.195312 119.722656 200.417969 C 120.421875 194.265625 125.675781 189.511719 131.941406 189.511719 C 134.710938 189.511719 137.308594 190.40625 139.492188 192.113281 C 139.742188 192.308594 139.769531 192.644531 139.601562 192.894531 C 139.40625 193.148438 139.070312 193.175781 138.820312 193.007812 C 136.835938 191.46875 134.457031 190.660156 131.96875 190.660156 C 126.070312 190.660156 121.175781 195.273438 120.8125 201.144531 C 120.8125 201.3125 120.726562 201.480469 120.589844 201.5625 C 120.449219 201.648438 120.28125 201.703125 120.113281 201.648438 C 118.351562 201.171875 116.589844 202.292969 116.226562 203.96875 C 116.199219 204.109375 116.085938 204.25 115.976562 204.332031 C 115.863281 204.417969 115.667969 204.417969 115.527344 204.386719 C 114.96875 204.21875 114.378906 204.136719 113.765625 204.136719 C 111.527344 204.136719 109.515625 205.367188 108.507812 207.351562 C 108.367188 207.519531 108.171875 207.632812 107.976562 207.632812 Z M 107.976562 207.632812 " fill-opacity="1" fill-rule="nonzero"/></g><path fill="#ffffff" d="M 50.179688 207.519531 C 50.152344 207.519531 50.121094 207.519531 50.066406 207.519531 C 49.871094 207.492188 49.703125 207.351562 49.648438 207.15625 C 48.390625 203.746094 45.089844 201.480469 41.453125 201.480469 C 39.441406 201.480469 37.484375 202.179688 35.945312 203.4375 C 35.804688 203.550781 35.582031 203.605469 35.414062 203.523438 C 35.21875 203.464844 35.105469 203.296875 35.050781 203.128906 C 34.605469 201.230469 32.925781 199.886719 30.96875 199.886719 C 30.4375 199.886719 29.933594 200 29.429688 200.167969 C 29.261719 200.222656 29.066406 200.222656 28.898438 200.109375 C 28.757812 200 28.648438 199.832031 28.648438 199.636719 L 28.648438 199.550781 C 28.648438 199.523438 28.648438 199.496094 28.648438 199.46875 C 28.648438 192.785156 23.222656 187.359375 16.539062 187.359375 C 14.105469 187.359375 11.757812 188.085938 9.746094 189.457031 C 9.605469 189.539062 9.4375 189.566406 9.269531 189.539062 C 9.101562 189.484375 8.988281 189.371094 8.90625 189.234375 C 7.621094 186.101562 4.515625 184.085938 1.105469 184.085938 C 0.964844 184.085938 0.851562 184.085938 0.714844 184.085938 C 0.40625 184.085938 0.152344 183.863281 0.125 183.554688 C 0.125 183.25 0.347656 182.996094 0.65625 182.96875 C 0.796875 182.96875 0.9375 182.96875 1.078125 182.96875 C 4.710938 182.96875 8.011719 185.011719 9.6875 188.199219 C 11.757812 186.941406 14.136719 186.269531 16.566406 186.269531 C 23.671875 186.269531 29.488281 191.890625 29.765625 198.90625 C 30.15625 198.824219 30.550781 198.769531 30.941406 198.769531 C 33.148438 198.769531 35.050781 200.109375 35.863281 202.09375 C 37.484375 200.976562 39.441406 200.363281 41.453125 200.363281 C 45.257812 200.363281 48.726562 202.597656 50.347656 205.980469 C 51.550781 204.917969 53.085938 204.304688 54.707031 204.304688 C 55.546875 204.304688 56.414062 204.472656 57.199219 204.808594 C 57.867188 203.4375 59.265625 202.570312 60.832031 202.625 C 61.113281 196.558594 66.144531 191.722656 72.296875 191.722656 C 76.070312 191.722656 79.59375 193.566406 81.75 196.699219 C 81.917969 196.949219 81.859375 197.3125 81.609375 197.480469 C 81.355469 197.648438 80.992188 197.59375 80.824219 197.34375 C 78.894531 194.546875 75.707031 192.867188 72.296875 192.867188 C 66.59375 192.867188 61.949219 197.507812 61.949219 203.214844 L 61.949219 203.269531 C 61.949219 203.4375 61.867188 203.605469 61.753906 203.71875 C 61.617188 203.828125 61.449219 203.855469 61.28125 203.828125 C 59.824219 203.550781 58.457031 204.417969 58.035156 205.757812 C 57.980469 205.925781 57.867188 206.039062 57.730469 206.121094 C 57.589844 206.179688 57.394531 206.179688 57.253906 206.09375 C 56.46875 205.675781 55.605469 205.480469 54.738281 205.480469 C 53.144531 205.480469 51.632812 206.179688 50.597656 207.378906 C 50.515625 207.464844 50.347656 207.519531 50.179688 207.519531 Z M 50.179688 207.519531 " fill-opacity="1" fill-rule="nonzero"/><path fill="#ffffff" d="M 99.757812 185.90625 C 99.699219 185.90625 99.644531 185.90625 99.589844 185.878906 C 99.28125 185.792969 99.140625 185.457031 99.226562 185.179688 C 100.957031 179.613281 106.074219 175.867188 111.921875 175.867188 C 113.261719 175.867188 114.605469 176.0625 115.890625 176.480469 C 115.890625 176.371094 115.890625 176.285156 115.890625 176.175781 C 115.890625 171.027344 120.085938 166.835938 125.230469 166.835938 C 127.105469 166.835938 128.921875 167.394531 130.460938 168.429688 C 131.269531 166.304688 133.226562 164.738281 135.519531 164.429688 C 135.828125 164.402344 136.109375 164.597656 136.136719 164.90625 C 136.164062 165.214844 135.96875 165.492188 135.660156 165.519531 C 133.535156 165.800781 131.800781 167.394531 131.296875 169.464844 C 131.242188 169.660156 131.101562 169.796875 130.933594 169.855469 C 130.738281 169.910156 130.542969 169.882812 130.402344 169.769531 C 128.949219 168.597656 127.105469 167.925781 125.230469 167.925781 C 120.699219 167.925781 117.007812 171.617188 117.007812 176.144531 C 117.007812 176.480469 117.039062 176.84375 117.066406 177.179688 C 117.09375 177.375 117.007812 177.574219 116.839844 177.683594 C 116.671875 177.796875 116.476562 177.824219 116.28125 177.769531 C 114.882812 177.238281 113.402344 176.957031 111.890625 176.957031 C 106.550781 176.957031 101.855469 180.398438 100.261719 185.484375 C 100.203125 185.738281 99.980469 185.90625 99.757812 185.90625 Z M 99.757812 185.90625 " fill-opacity="1" fill-rule="nonzero"/><path fill="#ffffff" d="M 73.050781 192.839844 C 72.828125 192.839844 72.605469 192.699219 72.519531 192.476562 C 71.597656 189.933594 69.164062 188.199219 66.453125 188.199219 C 65.585938 188.199219 64.71875 188.367188 63.9375 188.703125 C 63.742188 188.785156 63.542969 188.757812 63.378906 188.644531 C 63.210938 188.535156 63.125 188.339844 63.152344 188.140625 C 63.210938 187.695312 63.210938 187.246094 63.210938 186.800781 C 63.210938 179.5 57.28125 173.574219 49.984375 173.574219 C 49.5625 173.574219 49.117188 173.601562 48.640625 173.628906 C 48.472656 173.65625 48.304688 173.574219 48.164062 173.460938 C 48.054688 173.320312 47.996094 173.152344 48.027344 172.988281 C 48.082031 172.621094 48.136719 172.257812 48.136719 171.894531 C 48.136719 168.652344 45.507812 165.996094 42.238281 165.996094 C 41.679688 165.996094 41.089844 166.078125 40.558594 166.246094 C 40.390625 166.304688 40.195312 166.277344 40.054688 166.136719 C 39.917969 166.023438 39.832031 165.855469 39.859375 165.660156 C 39.886719 165.4375 39.886719 165.242188 39.886719 165.046875 C 39.886719 159.480469 35.359375 154.980469 29.820312 154.980469 C 26.269531 154.980469 23.054688 156.796875 21.210938 159.816406 C 21.070312 160.066406 20.761719 160.152344 20.484375 160.039062 C 19.785156 159.703125 19.027344 159.535156 18.273438 159.535156 C 15.394531 159.535156 13.042969 161.886719 13.042969 164.765625 C 13.042969 164.765625 13.042969 164.792969 13.042969 164.820312 C 13.042969 165.015625 12.933594 165.214844 12.765625 165.296875 C 12.597656 165.378906 12.375 165.410156 12.207031 165.296875 C 11.144531 164.710938 9.96875 164.402344 8.738281 164.402344 C 7.199219 164.402344 5.746094 164.878906 4.515625 165.800781 C 4.265625 165.996094 3.929688 165.941406 3.734375 165.6875 C 3.539062 165.4375 3.59375 165.101562 3.84375 164.90625 C 5.269531 163.84375 6.949219 163.285156 8.710938 163.285156 C 9.828125 163.285156 10.917969 163.507812 11.925781 163.953125 C 12.316406 160.851562 15 158.417969 18.21875 158.417969 C 18.972656 158.417969 19.726562 158.558594 20.453125 158.835938 C 22.550781 155.734375 25.992188 153.886719 29.765625 153.886719 C 35.917969 153.886719 40.921875 158.867188 40.949219 165.015625 C 41.371094 164.933594 41.789062 164.90625 42.210938 164.90625 C 46.066406 164.90625 49.226562 168.039062 49.226562 171.925781 C 49.226562 172.121094 49.226562 172.316406 49.199219 172.511719 C 49.453125 172.511719 49.703125 172.484375 49.957031 172.484375 C 57.867188 172.484375 64.300781 178.914062 64.300781 186.828125 C 64.300781 187.023438 64.300781 187.21875 64.300781 187.386719 C 65 187.191406 65.699219 187.078125 66.425781 187.078125 C 69.613281 187.078125 72.464844 189.09375 73.554688 192.085938 C 73.667969 192.363281 73.5 192.699219 73.21875 192.8125 C 73.164062 192.839844 73.109375 192.839844 73.050781 192.839844 Z M 73.050781 192.839844 " fill-opacity="1" fill-rule="nonzero"/><path fill="#ffffff" d="M 107.445312 177.769531 C 107.195312 177.769531 106.972656 177.601562 106.914062 177.375 C 103.980469 167.140625 94.863281 159.816406 84.238281 159.144531 C 72.996094 158.445312 62.539062 165.378906 58.847656 176.035156 C 58.734375 176.3125 58.429688 176.480469 58.148438 176.371094 C 57.867188 176.257812 57.699219 175.949219 57.8125 175.671875 C 61.671875 164.570312 72.578125 157.300781 84.320312 158.054688 C 95.421875 158.753906 104.929688 166.386719 108.003906 177.070312 C 108.089844 177.375 107.921875 177.683594 107.613281 177.769531 C 107.558594 177.769531 107.503906 177.769531 107.445312 177.769531 Z M 107.445312 177.769531 " fill-opacity="1" fill-rule="nonzero"/><path fill="#ffffff" d="M 84.265625 159.144531 L 84.238281 159.144531 C 83.929688 159.117188 83.707031 158.867188 83.707031 158.558594 L 86.109375 120.136719 C 86.136719 119.828125 86.390625 119.605469 86.699219 119.605469 C 87.003906 119.632812 87.230469 119.886719 87.230469 120.191406 L 84.824219 158.613281 C 84.796875 158.921875 84.542969 159.144531 84.265625 159.144531 Z M 84.265625 159.144531 " fill-opacity="1" fill-rule="nonzero"/><g clip-path="url(#435f1b8e36)"><path fill="#ffffff" d="M 77.554688 159.621094 C 77.300781 159.621094 77.050781 159.425781 76.996094 159.171875 L 68.71875 118.265625 C 68.660156 117.957031 68.859375 117.675781 69.164062 117.59375 C 69.472656 117.535156 69.753906 117.734375 69.835938 118.039062 L 78.113281 158.949219 C 78.167969 159.257812 77.972656 159.535156 77.664062 159.621094 C 77.636719 159.621094 77.582031 159.621094 77.554688 159.621094 Z M 77.554688 159.621094 " fill-opacity="1" fill-rule="nonzero"/></g><path fill="#ffffff" d="M 71.179688 161.800781 C 70.984375 161.800781 70.789062 161.691406 70.675781 161.492188 L 50.542969 121.003906 C 50.402344 120.722656 50.515625 120.390625 50.792969 120.25 C 51.074219 120.109375 51.410156 120.222656 51.550781 120.5 L 71.683594 160.992188 C 71.820312 161.269531 71.710938 161.605469 71.429688 161.746094 C 71.347656 161.773438 71.261719 161.800781 71.179688 161.800781 Z M 71.179688 161.800781 " fill-opacity="1" fill-rule="nonzero"/><path fill="#ffffff" d="M 65.613281 165.546875 C 65.445312 165.546875 65.304688 165.492188 65.195312 165.351562 L 33.011719 128.917969 C 32.8125 128.695312 32.8125 128.332031 33.066406 128.132812 C 33.289062 127.9375 33.652344 127.9375 33.847656 128.191406 L 66.035156 164.625 C 66.230469 164.847656 66.230469 165.214844 65.976562 165.410156 C 65.867188 165.492188 65.726562 165.546875 65.613281 165.546875 Z M 65.613281 165.546875 " fill-opacity="1" fill-rule="nonzero"/><path fill="#ffffff" d="M 61.195312 170.609375 C 61.085938 170.609375 60.972656 170.582031 60.886719 170.527344 L 17.769531 141.949219 C 17.519531 141.78125 17.433594 141.417969 17.601562 141.164062 C 17.769531 140.914062 18.132812 140.828125 18.386719 140.996094 L 61.503906 169.601562 C 61.753906 169.769531 61.839844 170.132812 61.671875 170.386719 C 61.558594 170.527344 61.363281 170.609375 61.195312 170.609375 Z M 61.195312 170.609375 " fill-opacity="1" fill-rule="nonzero"/><path fill="#ffffff" d="M 13.773438 161.746094 C 13.714844 161.746094 13.660156 161.746094 13.605469 161.71875 L 6.640625 159.367188 C 6.363281 159.257812 6.195312 158.949219 6.277344 158.667969 C 6.390625 158.390625 6.695312 158.222656 6.976562 158.304688 L 13.9375 160.65625 C 14.21875 160.765625 14.386719 161.074219 14.304688 161.355469 C 14.21875 161.578125 13.996094 161.746094 13.773438 161.746094 Z M 13.773438 161.746094 " fill-opacity="1" fill-rule="nonzero"/><path fill="#ffffff" d="M 105.742188 173.40625 C 105.542969 173.40625 105.347656 173.292969 105.238281 173.097656 C 105.097656 172.820312 105.210938 172.484375 105.488281 172.34375 L 133.03125 158.640625 C 133.3125 158.5 133.648438 158.613281 133.785156 158.894531 C 133.925781 159.171875 133.816406 159.507812 133.535156 159.648438 L 105.992188 173.351562 C 105.90625 173.378906 105.824219 173.40625 105.742188 173.40625 Z M 105.742188 173.40625 " fill-opacity="1" fill-rule="nonzero"/><path fill="#ffffff" d="M 101.992188 167.8125 C 101.824219 167.8125 101.6875 167.757812 101.574219 167.617188 C 101.378906 167.394531 101.378906 167.03125 101.628906 166.835938 L 125.398438 145.863281 C 125.621094 145.667969 125.984375 145.667969 126.179688 145.917969 C 126.375 146.140625 126.375 146.507812 126.125 146.703125 L 102.355469 167.671875 C 102.246094 167.757812 102.105469 167.8125 101.992188 167.8125 Z M 101.992188 167.8125 " fill-opacity="1" fill-rule="nonzero"/><path fill="#ffffff" d="M 96.902344 163.394531 C 96.792969 163.394531 96.679688 163.367188 96.597656 163.3125 C 96.34375 163.144531 96.261719 162.78125 96.429688 162.527344 L 114.855469 134.734375 C 115.023438 134.480469 115.386719 134.398438 115.640625 134.566406 C 115.890625 134.734375 115.976562 135.097656 115.808594 135.347656 L 97.378906 163.144531 C 97.269531 163.3125 97.101562 163.394531 96.902344 163.394531 Z M 96.902344 163.394531 " fill-opacity="1" fill-rule="nonzero"/><path fill="#ffffff" d="M 90.863281 160.429688 C 90.808594 160.429688 90.753906 160.429688 90.695312 160.402344 C 90.417969 160.292969 90.25 159.984375 90.332031 159.703125 L 101.6875 125.898438 C 101.796875 125.617188 102.105469 125.449219 102.386719 125.535156 C 102.664062 125.644531 102.832031 125.953125 102.75 126.234375 L 91.394531 160.039062 C 91.3125 160.292969 91.089844 160.429688 90.863281 160.429688 Z M 90.863281 160.429688 " fill-opacity="1" fill-rule="nonzero"/><path fill="#ffffff" d="M 91.5625 231.398438 L 71.652344 231.398438 C 71.347656 231.398438 71.09375 231.148438 71.09375 230.839844 C 71.09375 230.535156 71.347656 230.28125 71.652344 230.28125 L 91.5625 230.28125 C 91.871094 230.28125 92.121094 230.535156 92.121094 230.839844 C 92.121094 231.148438 91.871094 231.398438 91.5625 231.398438 Z M 91.5625 231.398438 " fill-opacity="1" fill-rule="nonzero"/><path fill="#ffffff" d="M 124.140625 231.398438 L 109.460938 231.398438 C 109.152344 231.398438 108.898438 231.148438 108.898438 230.839844 C 108.898438 230.535156 109.152344 230.28125 109.460938 230.28125 L 124.140625 230.28125 C 124.449219 230.28125 124.699219 230.535156 124.699219 230.839844 C 124.699219 231.148438 124.449219 231.398438 124.140625 231.398438 Z M 124.140625 231.398438 " fill-opacity="1" fill-rule="nonzero"/><path fill="#ffffff" d="M 57.308594 217.558594 L 29.011719 217.558594 C 28.703125 217.558594 28.453125 217.308594 28.453125 217 C 28.453125 216.691406 28.703125 216.441406 29.011719 216.441406 L 57.308594 216.441406 C 57.617188 216.441406 57.867188 216.691406 57.867188 217 C 57.867188 217.308594 57.617188 217.558594 57.308594 217.558594 Z M 57.308594 217.558594 " fill-opacity="1" fill-rule="nonzero"/><path fill="#ffffff" d="M 32.171875 222.925781 L 17.9375 222.925781 C 17.628906 222.925781 17.378906 222.675781 17.378906 222.367188 C 17.378906 222.0625 17.628906 221.808594 17.9375 221.808594 L 32.171875 221.808594 C 32.476562 221.808594 32.730469 222.0625 32.730469 222.367188 C 32.730469 222.675781 32.476562 222.925781 32.171875 222.925781 Z M 32.171875 222.925781 " fill-opacity="1" fill-rule="nonzero"/><path fill="#ffffff" d="M 132.472656 218.257812 L 122.742188 218.257812 C 122.433594 218.257812 122.183594 218.007812 122.183594 217.699219 C 122.183594 217.390625 122.433594 217.140625 122.742188 217.140625 L 132.472656 217.140625 C 132.78125 217.140625 133.03125 217.390625 133.03125 217.699219 C 133.03125 218.007812 132.78125 218.257812 132.472656 218.257812 Z M 132.472656 218.257812 " fill-opacity="1" fill-rule="nonzero"/><path fill="#ffffff" d="M 49.394531 241.269531 L 25.433594 241.269531 C 25.125 241.269531 24.871094 241.019531 24.871094 240.710938 C 24.871094 240.402344 25.125 240.152344 25.433594 240.152344 L 49.394531 240.152344 C 49.703125 240.152344 49.957031 240.402344 49.957031 240.710938 C 49.957031 241.019531 49.703125 241.269531 49.394531 241.269531 Z M 49.394531 241.269531 " fill-opacity="1" fill-rule="nonzero"/><path fill="#ffffff" d="M 36.03125 244.933594 L 30.242188 244.933594 C 29.933594 244.933594 29.683594 244.683594 29.683594 244.375 C 29.683594 244.066406 29.933594 243.816406 30.242188 243.816406 L 36.03125 243.816406 C 36.335938 243.816406 36.589844 244.066406 36.589844 244.375 C 36.589844 244.683594 36.335938 244.933594 36.03125 244.933594 Z M 36.03125 244.933594 " fill-opacity="1" fill-rule="nonzero"/><path fill="#ffffff" d="M 77.609375 236.460938 L 61.699219 236.460938 C 61.390625 236.460938 61.140625 236.210938 61.140625 235.902344 C 61.140625 235.59375 61.390625 235.34375 61.699219 235.34375 L 77.609375 235.34375 C 77.917969 235.34375 78.167969 235.59375 78.167969 235.902344 C 78.167969 236.210938 77.917969 236.460938 77.609375 236.460938 Z M 77.609375 236.460938 " fill-opacity="1" fill-rule="nonzero"/><path fill="#ffffff" d="M 81.609375 241.269531 L 73.667969 241.269531 C 73.359375 241.269531 73.109375 241.019531 73.109375 240.710938 C 73.109375 240.402344 73.359375 240.152344 73.667969 240.152344 L 81.609375 240.152344 C 81.917969 240.152344 82.167969 240.402344 82.167969 240.710938 C 82.167969 241.019531 81.917969 241.269531 81.609375 241.269531 Z M 81.609375 241.269531 " fill-opacity="1" fill-rule="nonzero"/><path fill="#ffffff" d="M 109.738281 244.933594 L 89.859375 244.933594 C 89.550781 244.933594 89.296875 244.683594 89.296875 244.375 C 89.296875 244.066406 89.550781 243.816406 89.859375 243.816406 L 109.738281 243.816406 C 110.046875 243.816406 110.296875 244.066406 110.296875 244.375 C 110.296875 244.683594 110.046875 244.933594 109.738281 244.933594 Z M 109.738281 244.933594 " fill-opacity="1" fill-rule="nonzero"/><path fill="#ffffff" d="M 93.242188 249.546875 L 81.160156 249.546875 C 80.855469 249.546875 80.601562 249.296875 80.601562 248.988281 C 80.601562 248.679688 80.855469 248.429688 81.160156 248.429688 L 93.242188 248.429688 C 93.546875 248.429688 93.800781 248.679688 93.800781 248.988281 C 93.800781 249.296875 93.546875 249.546875 93.242188 249.546875 Z M 93.242188 249.546875 " fill-opacity="1" fill-rule="nonzero"/><path fill="#ffffff" d="M 64.859375 253.097656 L 57.589844 253.097656 C 57.28125 253.097656 57.03125 252.847656 57.03125 252.539062 C 57.03125 252.230469 57.28125 251.980469 57.589844 251.980469 L 64.859375 251.980469 C 65.167969 251.980469 65.417969 252.230469 65.417969 252.539062 C 65.417969 252.847656 65.167969 253.097656 64.859375 253.097656 Z M 64.859375 253.097656 " fill-opacity="1" fill-rule="nonzero"/><g fill="#ffffff" fill-opacity="0.4"><g transform="translate(159.329159, 179.754731)"><g><path d="M 18.8125 -12.65625 C 18.8125 -10.957031 18.632812 -9.316406 18.28125 -7.734375 C 17.925781 -6.160156 17.363281 -4.769531 16.59375 -3.5625 C 15.832031 -2.351562 14.832031 -1.378906 13.59375 -0.640625 C 12.363281 0.0859375 10.859375 0.453125 9.078125 0.453125 C 7.304688 0.453125 5.800781 0.0859375 4.5625 -0.640625 C 3.320312 -1.378906 2.316406 -2.351562 1.546875 -3.5625 C 0.773438 -4.769531 0.21875 -6.160156 -0.125 -7.734375 C -0.46875 -9.316406 -0.640625 -10.957031 -0.640625 -12.65625 C -0.640625 -14.351562 -0.46875 -15.992188 -0.125 -17.578125 C 0.21875 -19.160156 0.78125 -20.5625 1.5625 -21.78125 C 2.34375 -23 3.351562 -23.972656 4.59375 -24.703125 C 5.832031 -25.441406 7.328125 -25.8125 9.078125 -25.8125 C 10.828125 -25.8125 12.320312 -25.441406 13.5625 -24.703125 C 14.800781 -23.972656 15.800781 -23 16.5625 -21.78125 C 17.332031 -20.5625 17.898438 -19.160156 18.265625 -17.578125 C 18.628906 -15.992188 18.8125 -14.351562 18.8125 -12.65625 Z M 16.125 -12.65625 C 16.125 -14.332031 15.960938 -15.835938 15.640625 -17.171875 C 15.328125 -18.515625 14.867188 -19.660156 14.265625 -20.609375 C 13.671875 -21.554688 12.9375 -22.28125 12.0625 -22.78125 C 11.1875 -23.28125 10.191406 -23.53125 9.078125 -23.53125 C 7.691406 -23.53125 6.546875 -23.207031 5.640625 -22.5625 C 4.742188 -21.914062 4.023438 -21.066406 3.484375 -20.015625 C 2.941406 -18.960938 2.5625 -17.789062 2.34375 -16.5 C 2.125 -15.21875 2.015625 -13.9375 2.015625 -12.65625 C 2.015625 -11.382812 2.125 -10.101562 2.34375 -8.8125 C 2.5625 -7.53125 2.941406 -6.375 3.484375 -5.34375 C 4.023438 -4.3125 4.742188 -3.46875 5.640625 -2.8125 C 6.546875 -2.15625 7.691406 -1.828125 9.078125 -1.828125 C 10.453125 -1.828125 11.59375 -2.15625 12.5 -2.8125 C 13.40625 -3.46875 14.128906 -4.3125 14.671875 -5.34375 C 15.222656 -6.375 15.601562 -7.53125 15.8125 -8.8125 C 16.019531 -10.101562 16.125 -11.382812 16.125 -12.65625 Z M 16.125 -12.65625 "/></g></g></g><g fill="#ffffff" fill-opacity="0.4"><g transform="translate(181.070187, 179.754731)"><g><path d="M 18.125 -15.84375 L 10.40625 -15.84375 L 10.40625 -2.28125 L 14.484375 -2.28125 L 14.484375 0 L 3.625 0 L 3.625 -2.28125 L 7.71875 -2.28125 L 7.71875 -15.84375 L 3.625 -15.84375 L 3.625 -18.125 L 7.71875 -18.125 C 7.71875 -20.613281 8.363281 -22.515625 9.65625 -23.828125 C 10.945312 -25.148438 12.894531 -25.8125 15.5 -25.8125 C 16.101562 -25.8125 16.613281 -25.789062 17.03125 -25.75 C 17.457031 -25.707031 17.820312 -25.660156 18.125 -25.609375 L 18.125 -23.34375 C 17.75 -23.394531 17.351562 -23.4375 16.9375 -23.46875 C 16.53125 -23.507812 16.050781 -23.53125 15.5 -23.53125 C 13.800781 -23.53125 12.523438 -23.097656 11.671875 -22.234375 C 10.828125 -21.367188 10.40625 -20 10.40625 -18.125 L 18.125 -18.125 Z M 18.125 -15.84375 "/></g></g></g><g fill="#ffffff" fill-opacity="0.4"><g transform="translate(202.811215, 179.754731)"><g><path d="M 18.125 -15.84375 L 10.40625 -15.84375 L 10.40625 -2.28125 L 14.484375 -2.28125 L 14.484375 0 L 3.625 0 L 3.625 -2.28125 L 7.71875 -2.28125 L 7.71875 -15.84375 L 3.625 -15.84375 L 3.625 -18.125 L 7.71875 -18.125 C 7.71875 -20.613281 8.363281 -22.515625 9.65625 -23.828125 C 10.945312 -25.148438 12.894531 -25.8125 15.5 -25.8125 C 16.101562 -25.8125 16.613281 -25.789062 17.03125 -25.75 C 17.457031 -25.707031 17.820312 -25.660156 18.125 -25.609375 L 18.125 -23.34375 C 17.75 -23.394531 17.351562 -23.4375 16.9375 -23.46875 C 16.53125 -23.507812 16.050781 -23.53125 15.5 -23.53125 C 13.800781 -23.53125 12.523438 -23.097656 11.671875 -22.234375 C 10.828125 -21.367188 10.40625 -20 10.40625 -18.125 L 18.125 -18.125 Z M 18.125 -15.84375 "/></g></g></g><g fill="#ffffff" fill-opacity="0.4"><g transform="translate(224.552243, 179.754731)"><g><path d="M 18.125 -8.171875 L 0 -8.171875 L 0 -10.4375 L 18.125 -10.4375 Z M 18.125 -8.171875 "/></g></g></g><g fill="#ffffff" fill-opacity="0.4"><g transform="translate(246.293271, 179.754731)"><g><path d="M 19.109375 -12.625 C 19.109375 -10.894531 18.929688 -9.242188 18.578125 -7.671875 C 18.222656 -6.109375 17.648438 -4.722656 16.859375 -3.515625 C 16.078125 -2.316406 15.066406 -1.351562 13.828125 -0.625 C 12.597656 0.09375 11.109375 0.453125 9.359375 0.453125 C 7.578125 0.453125 6.070312 0.0859375 4.84375 -0.640625 C 3.613281 -1.378906 2.601562 -2.351562 1.8125 -3.5625 C 1.03125 -4.769531 0.46875 -6.160156 0.125 -7.734375 C -0.21875 -9.316406 -0.390625 -10.957031 -0.390625 -12.65625 C -0.390625 -14.351562 -0.21875 -15.992188 0.125 -17.578125 C 0.46875 -19.160156 1.03125 -20.5625 1.8125 -21.78125 C 2.601562 -23 3.613281 -23.972656 4.84375 -24.703125 C 6.070312 -25.441406 7.578125 -25.8125 9.359375 -25.8125 C 10.921875 -25.8125 12.257812 -25.53125 13.375 -24.96875 C 14.488281 -24.414062 15.3125 -23.566406 15.84375 -22.421875 L 15.84375 -25.375 L 18.125 -25.375 L 18.125 -17.0625 L 15.84375 -17.0625 C 15.84375 -17.976562 15.671875 -18.832031 15.328125 -19.625 C 14.984375 -20.425781 14.519531 -21.113281 13.9375 -21.6875 C 13.351562 -22.257812 12.660156 -22.707031 11.859375 -23.03125 C 11.066406 -23.363281 10.234375 -23.53125 9.359375 -23.53125 C 7.984375 -23.53125 6.84375 -23.207031 5.9375 -22.5625 C 5.039062 -21.914062 4.316406 -21.066406 3.765625 -20.015625 C 3.222656 -18.960938 2.835938 -17.789062 2.609375 -16.5 C 2.390625 -15.21875 2.28125 -13.9375 2.28125 -12.65625 C 2.28125 -11.382812 2.390625 -10.101562 2.609375 -8.8125 C 2.835938 -7.53125 3.222656 -6.375 3.765625 -5.34375 C 4.316406 -4.3125 5.039062 -3.46875 5.9375 -2.8125 C 6.84375 -2.15625 7.984375 -1.828125 9.359375 -1.828125 C 11.398438 -1.828125 13.007812 -2.617188 14.1875 -4.203125 C 15.375 -5.785156 16.078125 -8.007812 16.296875 -10.875 L 10.671875 -10.875 L 10.671875 -13.140625 L 19.109375 -13.140625 Z M 19.109375 -12.625 "/></g></g></g><g fill="#ffffff" fill-opacity="0.4"><g transform="translate(268.034299, 179.754731)"><g><path d="M 17.140625 -15.578125 C 16.171875 -16.054688 15.023438 -16.296875 13.703125 -16.296875 C 12.617188 -16.296875 11.648438 -16.0625 10.796875 -15.59375 C 9.941406 -15.125 9.210938 -14.507812 8.609375 -13.75 C 8.015625 -13 7.554688 -12.132812 7.234375 -11.15625 C 6.921875 -10.175781 6.765625 -9.164062 6.765625 -8.125 L 6.765625 -2.28125 L 10.875 -2.28125 L 10.875 0 L 0 0 L 0 -2.28125 L 4.109375 -2.28125 L 4.109375 -15.84375 L 0 -15.84375 L 0 -18.125 L 6.765625 -18.125 L 6.765625 -13.578125 C 7.984375 -16.890625 10.296875 -18.546875 13.703125 -18.546875 C 14.628906 -18.546875 15.429688 -18.488281 16.109375 -18.375 C 16.796875 -18.257812 17.429688 -18.050781 18.015625 -17.75 Z M 17.140625 -15.578125 "/></g></g></g><g fill="#ffffff" fill-opacity="0.4"><g transform="translate(289.775327, 179.754731)"><g><path d="M 10.875 -21.734375 L 7.25 -21.734375 L 7.25 -25.375 L 10.875 -25.375 Z M 14.484375 0 L 3.625 0 L 3.625 -2.28125 L 7.71875 -2.28125 L 7.71875 -15.84375 L 3.625 -15.84375 L 3.625 -18.125 L 10.40625 -18.125 L 10.40625 -2.28125 L 14.484375 -2.28125 Z M 14.484375 0 "/></g></g></g><g fill="#ffffff" fill-opacity="0.4"><g transform="translate(311.516355, 179.754731)"><g><path d="M 17.171875 0 L 14.484375 0 L 14.484375 -1.671875 C 13.722656 -0.984375 12.882812 -0.457031 11.96875 -0.09375 C 11.050781 0.269531 10.113281 0.453125 9.15625 0.453125 C 7.71875 0.453125 6.425781 0.21875 5.28125 -0.25 C 4.144531 -0.71875 3.179688 -1.367188 2.390625 -2.203125 C 1.609375 -3.046875 1.007812 -4.050781 0.59375 -5.21875 C 0.175781 -6.382812 -0.03125 -7.660156 -0.03125 -9.046875 C -0.03125 -10.421875 0.175781 -11.691406 0.59375 -12.859375 C 1.007812 -14.035156 1.609375 -15.039062 2.390625 -15.875 C 3.179688 -16.71875 4.144531 -17.375 5.28125 -17.84375 C 6.425781 -18.3125 7.71875 -18.546875 9.15625 -18.546875 C 10.113281 -18.546875 11.050781 -18.375 11.96875 -18.03125 C 12.882812 -17.6875 13.722656 -17.171875 14.484375 -16.484375 L 14.484375 -23.109375 L 10.875 -23.109375 L 10.875 -25.375 L 17.171875 -25.375 Z M 14.484375 -13.90625 C 13.722656 -14.75 12.890625 -15.359375 11.984375 -15.734375 C 11.085938 -16.109375 10.132812 -16.296875 9.125 -16.296875 C 8.0625 -16.296875 7.125 -16.109375 6.3125 -15.734375 C 5.5 -15.359375 4.820312 -14.84375 4.28125 -14.1875 C 3.738281 -13.539062 3.328125 -12.78125 3.046875 -11.90625 C 2.765625 -11.03125 2.625 -10.078125 2.625 -9.046875 C 2.625 -8.003906 2.765625 -7.046875 3.046875 -6.171875 C 3.328125 -5.296875 3.738281 -4.535156 4.28125 -3.890625 C 4.820312 -3.242188 5.5 -2.734375 6.3125 -2.359375 C 7.125 -1.984375 8.0625 -1.796875 9.125 -1.796875 C 11.164062 -1.796875 12.953125 -2.601562 14.484375 -4.21875 Z M 14.484375 -13.90625 "/></g></g></g><g fill="#ffffff" fill-opacity="1"><g transform="translate(157.568769, 177.994341)"><g><path d="M 18.8125 -12.65625 C 18.8125 -10.957031 18.632812 -9.316406 18.28125 -7.734375 C 17.925781 -6.160156 17.363281 -4.769531 16.59375 -3.5625 C 15.832031 -2.351562 14.832031 -1.378906 13.59375 -0.640625 C 12.363281 0.0859375 10.859375 0.453125 9.078125 0.453125 C 7.304688 0.453125 5.800781 0.0859375 4.5625 -0.640625 C 3.320312 -1.378906 2.316406 -2.351562 1.546875 -3.5625 C 0.773438 -4.769531 0.21875 -6.160156 -0.125 -7.734375 C -0.46875 -9.316406 -0.640625 -10.957031 -0.640625 -12.65625 C -0.640625 -14.351562 -0.46875 -15.992188 -0.125 -17.578125 C 0.21875 -19.160156 0.78125 -20.5625 1.5625 -21.78125 C 2.34375 -23 3.351562 -23.972656 4.59375 -24.703125 C 5.832031 -25.441406 7.328125 -25.8125 9.078125 -25.8125 C 10.828125 -25.8125 12.320312 -25.441406 13.5625 -24.703125 C 14.800781 -23.972656 15.800781 -23 16.5625 -21.78125 C 17.332031 -20.5625 17.898438 -19.160156 18.265625 -17.578125 C 18.628906 -15.992188 18.8125 -14.351562 18.8125 -12.65625 Z M 16.125 -12.65625 C 16.125 -14.332031 15.960938 -15.835938 15.640625 -17.171875 C 15.328125 -18.515625 14.867188 -19.660156 14.265625 -20.609375 C 13.671875 -21.554688 12.9375 -22.28125 12.0625 -22.78125 C 11.1875 -23.28125 10.191406 -23.53125 9.078125 -23.53125 C 7.691406 -23.53125 6.546875 -23.207031 5.640625 -22.5625 C 4.742188 -21.914062 4.023438 -21.066406 3.484375 -20.015625 C 2.941406 -18.960938 2.5625 -17.789062 2.34375 -16.5 C 2.125 -15.21875 2.015625 -13.9375 2.015625 -12.65625 C 2.015625 -11.382812 2.125 -10.101562 2.34375 -8.8125 C 2.5625 -7.53125 2.941406 -6.375 3.484375 -5.34375 C 4.023438 -4.3125 4.742188 -3.46875 5.640625 -2.8125 C 6.546875 -2.15625 7.691406 -1.828125 9.078125 -1.828125 C 10.453125 -1.828125 11.59375 -2.15625 12.5 -2.8125 C 13.40625 -3.46875 14.128906 -4.3125 14.671875 -5.34375 C 15.222656 -6.375 15.601562 -7.53125 15.8125 -8.8125 C 16.019531 -10.101562 16.125 -11.382812 16.125 -12.65625 Z M 16.125 -12.65625 "/></g></g></g><g fill="#ffffff" fill-opacity="1"><g transform="translate(179.309797, 177.994341)"><g><path d="M 18.125 -15.84375 L 10.40625 -15.84375 L 10.40625 -2.28125 L 14.484375 -2.28125 L 14.484375 0 L 3.625 0 L 3.625 -2.28125 L 7.71875 -2.28125 L 7.71875 -15.84375 L 3.625 -15.84375 L 3.625 -18.125 L 7.71875 -18.125 C 7.71875 -20.613281 8.363281 -22.515625 9.65625 -23.828125 C 10.945312 -25.148438 12.894531 -25.8125 15.5 -25.8125 C 16.101562 -25.8125 16.613281 -25.789062 17.03125 -25.75 C 17.457031 -25.707031 17.820312 -25.660156 18.125 -25.609375 L 18.125 -23.34375 C 17.75 -23.394531 17.351562 -23.4375 16.9375 -23.46875 C 16.53125 -23.507812 16.050781 -23.53125 15.5 -23.53125 C 13.800781 -23.53125 12.523438 -23.097656 11.671875 -22.234375 C 10.828125 -21.367188 10.40625 -20 10.40625 -18.125 L 18.125 -18.125 Z M 18.125 -15.84375 "/></g></g></g><g fill="#ffffff" fill-opacity="1"><g transform="translate(201.050825, 177.994341)"><g><path d="M 18.125 -15.84375 L 10.40625 -15.84375 L 10.40625 -2.28125 L 14.484375 -2.28125 L 14.484375 0 L 3.625 0 L 3.625 -2.28125 L 7.71875 -2.28125 L 7.71875 -15.84375 L 3.625 -15.84375 L 3.625 -18.125 L 7.71875 -18.125 C 7.71875 -20.613281 8.363281 -22.515625 9.65625 -23.828125 C 10.945312 -25.148438 12.894531 -25.8125 15.5 -25.8125 C 16.101562 -25.8125 16.613281 -25.789062 17.03125 -25.75 C 17.457031 -25.707031 17.820312 -25.660156 18.125 -25.609375 L 18.125 -23.34375 C 17.75 -23.394531 17.351562 -23.4375 16.9375 -23.46875 C 16.53125 -23.507812 16.050781 -23.53125 15.5 -23.53125 C 13.800781 -23.53125 12.523438 -23.097656 11.671875 -22.234375 C 10.828125 -21.367188 10.40625 -20 10.40625 -18.125 L 18.125 -18.125 Z M 18.125 -15.84375 "/></g></g></g><g fill="#ffffff" fill-opacity="1"><g transform="translate(222.791853, 177.994341)"><g><path d="M 18.125 -8.171875 L 0 -8.171875 L 0 -10.4375 L 18.125 -10.4375 Z M 18.125 -8.171875 "/></g></g></g><g fill="#ffffff" fill-opacity="1"><g transform="translate(244.532881, 177.994341)"><g><path d="M 19.109375 -12.625 C 19.109375 -10.894531 18.929688 -9.242188 18.578125 -7.671875 C 18.222656 -6.109375 17.648438 -4.722656 16.859375 -3.515625 C 16.078125 -2.316406 15.066406 -1.351562 13.828125 -0.625 C 12.597656 0.09375 11.109375 0.453125 9.359375 0.453125 C 7.578125 0.453125 6.070312 0.0859375 4.84375 -0.640625 C 3.613281 -1.378906 2.601562 -2.351562 1.8125 -3.5625 C 1.03125 -4.769531 0.46875 -6.160156 0.125 -7.734375 C -0.21875 -9.316406 -0.390625 -10.957031 -0.390625 -12.65625 C -0.390625 -14.351562 -0.21875 -15.992188 0.125 -17.578125 C 0.46875 -19.160156 1.03125 -20.5625 1.8125 -21.78125 C 2.601562 -23 3.613281 -23.972656 4.84375 -24.703125 C 6.070312 -25.441406 7.578125 -25.8125 9.359375 -25.8125 C 10.921875 -25.8125 12.257812 -25.53125 13.375 -24.96875 C 14.488281 -24.414062 15.3125 -23.566406 15.84375 -22.421875 L 15.84375 -25.375 L 18.125 -25.375 L 18.125 -17.0625 L 15.84375 -17.0625 C 15.84375 -17.976562 15.671875 -18.832031 15.328125 -19.625 C 14.984375 -20.425781 14.519531 -21.113281 13.9375 -21.6875 C 13.351562 -22.257812 12.660156 -22.707031 11.859375 -23.03125 C 11.066406 -23.363281 10.234375 -23.53125 9.359375 -23.53125 C 7.984375 -23.53125 6.84375 -23.207031 5.9375 -22.5625 C 5.039062 -21.914062 4.316406 -21.066406 3.765625 -20.015625 C 3.222656 -18.960938 2.835938 -17.789062 2.609375 -16.5 C 2.390625 -15.21875 2.28125 -13.9375 2.28125 -12.65625 C 2.28125 -11.382812 2.390625 -10.101562 2.609375 -8.8125 C 2.835938 -7.53125 3.222656 -6.375 3.765625 -5.34375 C 4.316406 -4.3125 5.039062 -3.46875 5.9375 -2.8125 C 6.84375 -2.15625 7.984375 -1.828125 9.359375 -1.828125 C 11.398438 -1.828125 13.007812 -2.617188 14.1875 -4.203125 C 15.375 -5.785156 16.078125 -8.007812 16.296875 -10.875 L 10.671875 -10.875 L 10.671875 -13.140625 L 19.109375 -13.140625 Z M 19.109375 -12.625 "/></g></g></g><g fill="#ffffff" fill-opacity="1"><g transform="translate(266.273909, 177.994341)"><g><path d="M 17.140625 -15.578125 C 16.171875 -16.054688 15.023438 -16.296875 13.703125 -16.296875 C 12.617188 -16.296875 11.648438 -16.0625 10.796875 -15.59375 C 9.941406 -15.125 9.210938 -14.507812 8.609375 -13.75 C 8.015625 -13 7.554688 -12.132812 7.234375 -11.15625 C 6.921875 -10.175781 6.765625 -9.164062 6.765625 -8.125 L 6.765625 -2.28125 L 10.875 -2.28125 L 10.875 0 L 0 0 L 0 -2.28125 L 4.109375 -2.28125 L 4.109375 -15.84375 L 0 -15.84375 L 0 -18.125 L 6.765625 -18.125 L 6.765625 -13.578125 C 7.984375 -16.890625 10.296875 -18.546875 13.703125 -18.546875 C 14.628906 -18.546875 15.429688 -18.488281 16.109375 -18.375 C 16.796875 -18.257812 17.429688 -18.050781 18.015625 -17.75 Z M 17.140625 -15.578125 "/></g></g></g><g fill="#ffffff" fill-opacity="1"><g transform="translate(288.014937, 177.994341)"><g><path d="M 10.875 -21.734375 L 7.25 -21.734375 L 7.25 -25.375 L 10.875 -25.375 Z M 14.484375 0 L 3.625 0 L 3.625 -2.28125 L 7.71875 -2.28125 L 7.71875 -15.84375 L 3.625 -15.84375 L 3.625 -18.125 L 10.40625 -18.125 L 10.40625 -2.28125 L 14.484375 -2.28125 Z M 14.484375 0 "/></g></g></g><g fill="#ffffff" fill-opacity="1"><g transform="translate(309.755965, 177.994341)"><g><path d="M 17.171875 0 L 14.484375 0 L 14.484375 -1.671875 C 13.722656 -0.984375 12.882812 -0.457031 11.96875 -0.09375 C 11.050781 0.269531 10.113281 0.453125 9.15625 0.453125 C 7.71875 0.453125 6.425781 0.21875 5.28125 -0.25 C 4.144531 -0.71875 3.179688 -1.367188 2.390625 -2.203125 C 1.609375 -3.046875 1.007812 -4.050781 0.59375 -5.21875 C 0.175781 -6.382812 -0.03125 -7.660156 -0.03125 -9.046875 C -0.03125 -10.421875 0.175781 -11.691406 0.59375 -12.859375 C 1.007812 -14.035156 1.609375 -15.039062 2.390625 -15.875 C 3.179688 -16.71875 4.144531 -17.375 5.28125 -17.84375 C 6.425781 -18.3125 7.71875 -18.546875 9.15625 -18.546875 C 10.113281 -18.546875 11.050781 -18.375 11.96875 -18.03125 C 12.882812 -17.6875 13.722656 -17.171875 14.484375 -16.484375 L 14.484375 -23.109375 L 10.875 -23.109375 L 10.875 -25.375 L 17.171875 -25.375 Z M 14.484375 -13.90625 C 13.722656 -14.75 12.890625 -15.359375 11.984375 -15.734375 C 11.085938 -16.109375 10.132812 -16.296875 9.125 -16.296875 C 8.0625 -16.296875 7.125 -16.109375 6.3125 -15.734375 C 5.5 -15.359375 4.820312 -14.84375 4.28125 -14.1875 C 3.738281 -13.539062 3.328125 -12.78125 3.046875 -11.90625 C 2.765625 -11.03125 2.625 -10.078125 2.625 -9.046875 C 2.625 -8.003906 2.765625 -7.046875 3.046875 -6.171875 C 3.328125 -5.296875 3.738281 -4.535156 4.28125 -3.890625 C 4.820312 -3.242188 5.5 -2.734375 6.3125 -2.359375 C 7.125 -1.984375 8.0625 -1.796875 9.125 -1.796875 C 11.164062 -1.796875 12.953125 -2.601562 14.484375 -4.21875 Z M 14.484375 -13.90625 "/></g></g></g><g fill="#ffffff" fill-opacity="0.4"><g transform="translate(333.274126, 179.754731)"><g/></g></g><g fill="#ffffff" fill-opacity="1"><g transform="translate(331.513736, 177.994341)"><g/></g></g><g fill="#ffffff" fill-opacity="0.4"><g transform="translate(159.329159, 221.851195)"><g><path d="M 18.28125 -6.65625 C 17.613281 -4.476562 16.53125 -2.75 15.03125 -1.46875 C 13.53125 -0.1875 11.640625 0.453125 9.359375 0.453125 C 7.578125 0.453125 6.070312 0.0859375 4.84375 -0.640625 C 3.613281 -1.378906 2.601562 -2.351562 1.8125 -3.5625 C 1.03125 -4.769531 0.46875 -6.160156 0.125 -7.734375 C -0.21875 -9.316406 -0.390625 -10.957031 -0.390625 -12.65625 C -0.390625 -14.351562 -0.21875 -15.992188 0.125 -17.578125 C 0.46875 -19.160156 1.03125 -20.5625 1.8125 -21.78125 C 2.601562 -23 3.613281 -23.972656 4.84375 -24.703125 C 6.070312 -25.441406 7.578125 -25.8125 9.359375 -25.8125 C 10.921875 -25.8125 12.257812 -25.53125 13.375 -24.96875 C 14.488281 -24.414062 15.3125 -23.566406 15.84375 -22.421875 L 15.84375 -25.375 L 18.125 -25.375 L 18.125 -17.0625 L 15.84375 -17.0625 C 15.84375 -17.945312 15.671875 -18.789062 15.328125 -19.59375 C 14.984375 -20.394531 14.519531 -21.085938 13.9375 -21.671875 C 13.351562 -22.253906 12.660156 -22.707031 11.859375 -23.03125 C 11.066406 -23.363281 10.234375 -23.53125 9.359375 -23.53125 C 7.984375 -23.53125 6.84375 -23.207031 5.9375 -22.5625 C 5.039062 -21.914062 4.316406 -21.066406 3.765625 -20.015625 C 3.222656 -18.960938 2.835938 -17.789062 2.609375 -16.5 C 2.390625 -15.21875 2.28125 -13.9375 2.28125 -12.65625 C 2.28125 -11.382812 2.390625 -10.101562 2.609375 -8.8125 C 2.835938 -7.53125 3.222656 -6.375 3.765625 -5.34375 C 4.316406 -4.3125 5.039062 -3.46875 5.9375 -2.8125 C 6.84375 -2.15625 7.984375 -1.828125 9.359375 -1.828125 C 12.515625 -1.828125 14.71875 -3.738281 15.96875 -7.5625 Z M 18.28125 -6.65625 "/></g></g></g><g fill="#ffffff" fill-opacity="0.4"><g transform="translate(181.070187, 221.851195)"><g><path d="M -0.03125 -4.90625 C -0.03125 -6.039062 0.25 -6.992188 0.8125 -7.765625 C 1.382812 -8.535156 2.132812 -9.144531 3.0625 -9.59375 C 3.988281 -10.039062 5.050781 -10.363281 6.25 -10.5625 C 7.445312 -10.769531 8.671875 -10.875 9.921875 -10.875 C 10.398438 -10.875 10.828125 -10.863281 11.203125 -10.84375 C 11.585938 -10.832031 11.953125 -10.8125 12.296875 -10.78125 C 12.640625 -10.757812 12.984375 -10.726562 13.328125 -10.6875 C 13.679688 -10.65625 14.066406 -10.613281 14.484375 -10.5625 L 14.484375 -11.859375 C 14.484375 -12.742188 14.289062 -13.46875 13.90625 -14.03125 C 13.53125 -14.601562 13.0625 -15.054688 12.5 -15.390625 C 11.945312 -15.722656 11.363281 -15.957031 10.75 -16.09375 C 10.144531 -16.226562 9.628906 -16.296875 9.203125 -16.296875 C 7.847656 -16.296875 6.597656 -16.113281 5.453125 -15.75 C 4.316406 -15.382812 3.257812 -14.898438 2.28125 -14.296875 L 1.0625 -16.296875 C 2.15625 -16.953125 3.378906 -17.488281 4.734375 -17.90625 C 6.085938 -18.332031 7.578125 -18.546875 9.203125 -18.546875 C 10.179688 -18.546875 11.144531 -18.421875 12.09375 -18.171875 C 13.050781 -17.921875 13.910156 -17.53125 14.671875 -17 C 15.429688 -16.476562 16.035156 -15.789062 16.484375 -14.9375 C 16.941406 -14.082031 17.171875 -13.054688 17.171875 -11.859375 L 17.171875 0 L 14.484375 0 L 14.484375 -3.03125 C 14.015625 -2.445312 13.484375 -1.9375 12.890625 -1.5 C 12.304688 -1.0625 11.691406 -0.703125 11.046875 -0.421875 C 10.398438 -0.140625 9.75 0.0703125 9.09375 0.21875 C 8.445312 0.375 7.832031 0.453125 7.25 0.453125 C 4.851562 0.453125 3.039062 -0.00390625 1.8125 -0.921875 C 0.582031 -1.847656 -0.03125 -3.175781 -0.03125 -4.90625 Z M 7.25 -1.828125 C 8.363281 -1.828125 9.363281 -1.988281 10.25 -2.3125 C 11.144531 -2.644531 11.898438 -3.054688 12.515625 -3.546875 C 13.140625 -4.046875 13.625 -4.570312 13.96875 -5.125 C 14.3125 -5.6875 14.484375 -6.195312 14.484375 -6.65625 L 14.484375 -8.359375 C 13.617188 -8.492188 12.785156 -8.566406 11.984375 -8.578125 C 11.191406 -8.585938 10.503906 -8.59375 9.921875 -8.59375 C 8.960938 -8.59375 8.035156 -8.523438 7.140625 -8.390625 C 6.253906 -8.265625 5.476562 -8.054688 4.8125 -7.765625 C 4.15625 -7.472656 3.625 -7.09375 3.21875 -6.625 C 2.820312 -6.164062 2.625 -5.59375 2.625 -4.90625 C 2.625 -4.132812 2.992188 -3.425781 3.734375 -2.78125 C 4.484375 -2.144531 5.65625 -1.828125 7.25 -1.828125 Z M 7.25 -1.828125 "/></g></g></g><g fill="#ffffff" fill-opacity="0.4"><g transform="translate(202.811215, 221.851195)"><g><path d="M 18.3125 -5.78125 C 18.113281 -3.875 17.367188 -2.359375 16.078125 -1.234375 C 14.785156 -0.109375 13.171875 0.453125 11.234375 0.453125 C 10.171875 0.453125 9.195312 0.273438 8.3125 -0.078125 C 7.4375 -0.429688 6.6875 -0.914062 6.0625 -1.53125 C 5.445312 -2.15625 4.96875 -2.90625 4.625 -3.78125 C 4.28125 -4.65625 4.109375 -5.613281 4.109375 -6.65625 L 4.109375 -15.84375 L 0 -15.84375 L 0 -18.125 L 4.109375 -18.125 L 4.109375 -25.375 L 6.765625 -25.375 L 6.765625 -18.125 L 14.484375 -18.125 L 14.484375 -15.84375 L 6.765625 -15.84375 L 6.765625 -6.65625 C 6.765625 -5.988281 6.867188 -5.363281 7.078125 -4.78125 C 7.296875 -4.195312 7.597656 -3.6875 7.984375 -3.25 C 8.367188 -2.8125 8.832031 -2.460938 9.375 -2.203125 C 9.914062 -1.953125 10.535156 -1.828125 11.234375 -1.828125 C 12.554688 -1.828125 13.660156 -2.238281 14.546875 -3.0625 C 15.441406 -3.882812 15.953125 -4.953125 16.078125 -6.265625 Z M 18.3125 -5.78125 "/></g></g></g><g fill="#ffffff" fill-opacity="0.4"><g transform="translate(224.552243, 221.851195)"><g><path d="M -0.03125 -4.90625 C -0.03125 -6.039062 0.25 -6.992188 0.8125 -7.765625 C 1.382812 -8.535156 2.132812 -9.144531 3.0625 -9.59375 C 3.988281 -10.039062 5.050781 -10.363281 6.25 -10.5625 C 7.445312 -10.769531 8.671875 -10.875 9.921875 -10.875 C 10.398438 -10.875 10.828125 -10.863281 11.203125 -10.84375 C 11.585938 -10.832031 11.953125 -10.8125 12.296875 -10.78125 C 12.640625 -10.757812 12.984375 -10.726562 13.328125 -10.6875 C 13.679688 -10.65625 14.066406 -10.613281 14.484375 -10.5625 L 14.484375 -11.859375 C 14.484375 -12.742188 14.289062 -13.46875 13.90625 -14.03125 C 13.53125 -14.601562 13.0625 -15.054688 12.5 -15.390625 C 11.945312 -15.722656 11.363281 -15.957031 10.75 -16.09375 C 10.144531 -16.226562 9.628906 -16.296875 9.203125 -16.296875 C 7.847656 -16.296875 6.597656 -16.113281 5.453125 -15.75 C 4.316406 -15.382812 3.257812 -14.898438 2.28125 -14.296875 L 1.0625 -16.296875 C 2.15625 -16.953125 3.378906 -17.488281 4.734375 -17.90625 C 6.085938 -18.332031 7.578125 -18.546875 9.203125 -18.546875 C 10.179688 -18.546875 11.144531 -18.421875 12.09375 -18.171875 C 13.050781 -17.921875 13.910156 -17.53125 14.671875 -17 C 15.429688 -16.476562 16.035156 -15.789062 16.484375 -14.9375 C 16.941406 -14.082031 17.171875 -13.054688 17.171875 -11.859375 L 17.171875 0 L 14.484375 0 L 14.484375 -3.03125 C 14.015625 -2.445312 13.484375 -1.9375 12.890625 -1.5 C 12.304688 -1.0625 11.691406 -0.703125 11.046875 -0.421875 C 10.398438 -0.140625 9.75 0.0703125 9.09375 0.21875 C 8.445312 0.375 7.832031 0.453125 7.25 0.453125 C 4.851562 0.453125 3.039062 -0.00390625 1.8125 -0.921875 C 0.582031 -1.847656 -0.03125 -3.175781 -0.03125 -4.90625 Z M 7.25 -1.828125 C 8.363281 -1.828125 9.363281 -1.988281 10.25 -2.3125 C 11.144531 -2.644531 11.898438 -3.054688 12.515625 -3.546875 C 13.140625 -4.046875 13.625 -4.570312 13.96875 -5.125 C 14.3125 -5.6875 14.484375 -6.195312 14.484375 -6.65625 L 14.484375 -8.359375 C 13.617188 -8.492188 12.785156 -8.566406 11.984375 -8.578125 C 11.191406 -8.585938 10.503906 -8.59375 9.921875 -8.59375 C 8.960938 -8.59375 8.035156 -8.523438 7.140625 -8.390625 C 6.253906 -8.265625 5.476562 -8.054688 4.8125 -7.765625 C 4.15625 -7.472656 3.625 -7.09375 3.21875 -6.625 C 2.820312 -6.164062 2.625 -5.59375 2.625 -4.90625 C 2.625 -4.132812 2.992188 -3.425781 3.734375 -2.78125 C 4.484375 -2.144531 5.65625 -1.828125 7.25 -1.828125 Z M 7.25 -1.828125 "/></g></g></g><g fill="#ffffff" fill-opacity="0.4"><g transform="translate(246.293271, 221.851195)"><g><path d="M 18.125 0 L 15.453125 0 L 15.453125 -13.03125 C 15.453125 -14.0625 15.269531 -14.863281 14.90625 -15.4375 C 14.550781 -16.007812 14.03125 -16.296875 13.34375 -16.296875 C 12.332031 -16.296875 11.585938 -15.765625 11.109375 -14.703125 C 10.640625 -13.640625 10.40625 -12.148438 10.40625 -10.234375 L 10.40625 0 L 7.71875 0 L 7.71875 -13.03125 C 7.71875 -14.0625 7.53125 -14.863281 7.15625 -15.4375 C 6.789062 -16.007812 6.265625 -16.296875 5.578125 -16.296875 C 4.941406 -16.296875 4.4375 -16.109375 4.0625 -15.734375 C 3.6875 -15.359375 3.390625 -14.878906 3.171875 -14.296875 C 2.960938 -13.710938 2.828125 -13.0625 2.765625 -12.34375 C 2.703125 -11.632812 2.671875 -10.929688 2.671875 -10.234375 L 2.671875 0 L 0 0 L 0 -18.125 L 2.671875 -18.125 L 2.671875 -15.5 C 3.222656 -17.53125 4.429688 -18.546875 6.296875 -18.546875 C 8.078125 -18.546875 9.285156 -17.660156 9.921875 -15.890625 C 10.796875 -17.660156 12.039062 -18.546875 13.65625 -18.546875 C 15.195312 -18.546875 16.328125 -18.085938 17.046875 -17.171875 C 17.765625 -16.265625 18.125 -14.882812 18.125 -13.03125 Z M 18.125 0 "/></g></g></g><g fill="#ffffff" fill-opacity="0.4"><g transform="translate(268.034299, 221.851195)"><g><path d="M -0.03125 -4.90625 C -0.03125 -6.039062 0.25 -6.992188 0.8125 -7.765625 C 1.382812 -8.535156 2.132812 -9.144531 3.0625 -9.59375 C 3.988281 -10.039062 5.050781 -10.363281 6.25 -10.5625 C 7.445312 -10.769531 8.671875 -10.875 9.921875 -10.875 C 10.398438 -10.875 10.828125 -10.863281 11.203125 -10.84375 C 11.585938 -10.832031 11.953125 -10.8125 12.296875 -10.78125 C 12.640625 -10.757812 12.984375 -10.726562 13.328125 -10.6875 C 13.679688 -10.65625 14.066406 -10.613281 14.484375 -10.5625 L 14.484375 -11.859375 C 14.484375 -12.742188 14.289062 -13.46875 13.90625 -14.03125 C 13.53125 -14.601562 13.0625 -15.054688 12.5 -15.390625 C 11.945312 -15.722656 11.363281 -15.957031 10.75 -16.09375 C 10.144531 -16.226562 9.628906 -16.296875 9.203125 -16.296875 C 7.847656 -16.296875 6.597656 -16.113281 5.453125 -15.75 C 4.316406 -15.382812 3.257812 -14.898438 2.28125 -14.296875 L 1.0625 -16.296875 C 2.15625 -16.953125 3.378906 -17.488281 4.734375 -17.90625 C 6.085938 -18.332031 7.578125 -18.546875 9.203125 -18.546875 C 10.179688 -18.546875 11.144531 -18.421875 12.09375 -18.171875 C 13.050781 -17.921875 13.910156 -17.53125 14.671875 -17 C 15.429688 -16.476562 16.035156 -15.789062 16.484375 -14.9375 C 16.941406 -14.082031 17.171875 -13.054688 17.171875 -11.859375 L 17.171875 0 L 14.484375 0 L 14.484375 -3.03125 C 14.015625 -2.445312 13.484375 -1.9375 12.890625 -1.5 C 12.304688 -1.0625 11.691406 -0.703125 11.046875 -0.421875 C 10.398438 -0.140625 9.75 0.0703125 9.09375 0.21875 C 8.445312 0.375 7.832031 0.453125 7.25 0.453125 C 4.851562 0.453125 3.039062 -0.00390625 1.8125 -0.921875 C 0.582031 -1.847656 -0.03125 -3.175781 -0.03125 -4.90625 Z M 7.25 -1.828125 C 8.363281 -1.828125 9.363281 -1.988281 10.25 -2.3125 C 11.144531 -2.644531 11.898438 -3.054688 12.515625 -3.546875 C 13.140625 -4.046875 13.625 -4.570312 13.96875 -5.125 C 14.3125 -5.6875 14.484375 -6.195312 14.484375 -6.65625 L 14.484375 -8.359375 C 13.617188 -8.492188 12.785156 -8.566406 11.984375 -8.578125 C 11.191406 -8.585938 10.503906 -8.59375 9.921875 -8.59375 C 8.960938 -8.59375 8.035156 -8.523438 7.140625 -8.390625 C 6.253906 -8.265625 5.476562 -8.054688 4.8125 -7.765625 C 4.15625 -7.472656 3.625 -7.09375 3.21875 -6.625 C 2.820312 -6.164062 2.625 -5.59375 2.625 -4.90625 C 2.625 -4.132812 2.992188 -3.425781 3.734375 -2.78125 C 4.484375 -2.144531 5.65625 -1.828125 7.25 -1.828125 Z M 7.25 -1.828125 "/></g></g></g><g fill="#ffffff" fill-opacity="0.4"><g transform="translate(289.775327, 221.851195)"><g><path d="M 17.140625 -15.578125 C 16.171875 -16.054688 15.023438 -16.296875 13.703125 -16.296875 C 12.617188 -16.296875 11.648438 -16.0625 10.796875 -15.59375 C 9.941406 -15.125 9.210938 -14.507812 8.609375 -13.75 C 8.015625 -13 7.554688 -12.132812 7.234375 -11.15625 C 6.921875 -10.175781 6.765625 -9.164062 6.765625 -8.125 L 6.765625 -2.28125 L 10.875 -2.28125 L 10.875 0 L 0 0 L 0 -2.28125 L 4.109375 -2.28125 L 4.109375 -15.84375 L 0 -15.84375 L 0 -18.125 L 6.765625 -18.125 L 6.765625 -13.578125 C 7.984375 -16.890625 10.296875 -18.546875 13.703125 -18.546875 C 14.628906 -18.546875 15.429688 -18.488281 16.109375 -18.375 C 16.796875 -18.257812 17.429688 -18.050781 18.015625 -17.75 Z M 17.140625 -15.578125 "/></g></g></g><g fill="#ffffff" fill-opacity="0.4"><g transform="translate(311.516355, 221.851195)"><g><path d="M -0.03125 -4.90625 C -0.03125 -6.039062 0.25 -6.992188 0.8125 -7.765625 C 1.382812 -8.535156 2.132812 -9.144531 3.0625 -9.59375 C 3.988281 -10.039062 5.050781 -10.363281 6.25 -10.5625 C 7.445312 -10.769531 8.671875 -10.875 9.921875 -10.875 C 10.398438 -10.875 10.828125 -10.863281 11.203125 -10.84375 C 11.585938 -10.832031 11.953125 -10.8125 12.296875 -10.78125 C 12.640625 -10.757812 12.984375 -10.726562 13.328125 -10.6875 C 13.679688 -10.65625 14.066406 -10.613281 14.484375 -10.5625 L 14.484375 -11.859375 C 14.484375 -12.742188 14.289062 -13.46875 13.90625 -14.03125 C 13.53125 -14.601562 13.0625 -15.054688 12.5 -15.390625 C 11.945312 -15.722656 11.363281 -15.957031 10.75 -16.09375 C 10.144531 -16.226562 9.628906 -16.296875 9.203125 -16.296875 C 7.847656 -16.296875 6.597656 -16.113281 5.453125 -15.75 C 4.316406 -15.382812 3.257812 -14.898438 2.28125 -14.296875 L 1.0625 -16.296875 C 2.15625 -16.953125 3.378906 -17.488281 4.734375 -17.90625 C 6.085938 -18.332031 7.578125 -18.546875 9.203125 -18.546875 C 10.179688 -18.546875 11.144531 -18.421875 12.09375 -18.171875 C 13.050781 -17.921875 13.910156 -17.53125 14.671875 -17 C 15.429688 -16.476562 16.035156 -15.789062 16.484375 -14.9375 C 16.941406 -14.082031 17.171875 -13.054688 17.171875 -11.859375 L 17.171875 0 L 14.484375 0 L 14.484375 -3.03125 C 14.015625 -2.445312 13.484375 -1.9375 12.890625 -1.5 C 12.304688 -1.0625 11.691406 -0.703125 11.046875 -0.421875 C 10.398438 -0.140625 9.75 0.0703125 9.09375 0.21875 C 8.445312 0.375 7.832031 0.453125 7.25 0.453125 C 4.851562 0.453125 3.039062 -0.00390625 1.8125 -0.921875 C 0.582031 -1.847656 -0.03125 -3.175781 -0.03125 -4.90625 Z M 7.25 -1.828125 C 8.363281 -1.828125 9.363281 -1.988281 10.25 -2.3125 C 11.144531 -2.644531 11.898438 -3.054688 12.515625 -3.546875 C 13.140625 -4.046875 13.625 -4.570312 13.96875 -5.125 C 14.3125 -5.6875 14.484375 -6.195312 14.484375 -6.65625 L 14.484375 -8.359375 C 13.617188 -8.492188 12.785156 -8.566406 11.984375 -8.578125 C 11.191406 -8.585938 10.503906 -8.59375 9.921875 -8.59375 C 8.960938 -8.59375 8.035156 -8.523438 7.140625 -8.390625 C 6.253906 -8.265625 5.476562 -8.054688 4.8125 -7.765625 C 4.15625 -7.472656 3.625 -7.09375 3.21875 -6.625 C 2.820312 -6.164062 2.625 -5.59375 2.625 -4.90625 C 2.625 -4.132812 2.992188 -3.425781 3.734375 -2.78125 C 4.484375 -2.144531 5.65625 -1.828125 7.25 -1.828125 Z M 7.25 -1.828125 "/></g></g></g><g fill="#ffffff" fill-opacity="0.4"><g transform="translate(333.257383, 221.851195)"><g><path d="M 17.171875 0 L 14.484375 0 L 14.484375 -11.1875 C 14.484375 -12.800781 14.132812 -14.054688 13.4375 -14.953125 C 12.738281 -15.847656 11.601562 -16.296875 10.03125 -16.296875 C 9.050781 -16.296875 8.160156 -16.066406 7.359375 -15.609375 C 6.566406 -15.160156 5.890625 -14.554688 5.328125 -13.796875 C 4.773438 -13.035156 4.351562 -12.164062 4.0625 -11.1875 C 3.769531 -10.207031 3.625 -9.1875 3.625 -8.125 L 3.625 0 L 0.953125 0 L 0.953125 -18.125 L 3.625 -18.125 L 3.625 -13.578125 C 4.90625 -16.890625 7.191406 -18.546875 10.484375 -18.546875 C 14.941406 -18.546875 17.171875 -16.09375 17.171875 -11.1875 Z M 17.171875 0 "/></g></g></g><g fill="#ffffff" fill-opacity="0.4"><g transform="translate(354.998412, 221.851195)"><g><path d="M 17.640625 -5.015625 C 17.640625 -3.953125 17.375 -3.070312 16.84375 -2.375 C 16.3125 -1.675781 15.625 -1.117188 14.78125 -0.703125 C 13.945312 -0.285156 13.015625 0.0078125 11.984375 0.1875 C 10.953125 0.363281 9.945312 0.453125 8.96875 0.453125 C 7.320312 0.453125 5.679688 0.210938 4.046875 -0.265625 C 2.410156 -0.742188 1 -1.375 -0.1875 -2.15625 L 0.984375 -4.453125 C 2.328125 -3.609375 3.644531 -2.957031 4.9375 -2.5 C 6.238281 -2.050781 7.582031 -1.828125 8.96875 -1.828125 C 12.96875 -1.828125 14.96875 -2.863281 14.96875 -4.9375 C 14.96875 -5.445312 14.800781 -5.859375 14.46875 -6.171875 C 14.144531 -6.492188 13.703125 -6.753906 13.140625 -6.953125 C 12.585938 -7.148438 11.953125 -7.304688 11.234375 -7.421875 C 10.515625 -7.546875 9.757812 -7.660156 8.96875 -7.765625 C 7.957031 -7.898438 6.953125 -8.066406 5.953125 -8.265625 C 4.953125 -8.460938 4.039062 -8.753906 3.21875 -9.140625 C 2.394531 -9.523438 1.734375 -10.039062 1.234375 -10.6875 C 0.734375 -11.34375 0.484375 -12.203125 0.484375 -13.265625 C 0.484375 -14.171875 0.710938 -14.953125 1.171875 -15.609375 C 1.628906 -16.273438 2.242188 -16.828125 3.015625 -17.265625 C 3.796875 -17.710938 4.703125 -18.035156 5.734375 -18.234375 C 6.773438 -18.441406 7.851562 -18.546875 8.96875 -18.546875 C 10.5625 -18.546875 11.984375 -18.359375 13.234375 -17.984375 C 14.492188 -17.617188 15.628906 -17.09375 16.640625 -16.40625 L 15.578125 -14.328125 C 14.535156 -15.054688 13.484375 -15.566406 12.421875 -15.859375 C 11.359375 -16.148438 10.207031 -16.296875 8.96875 -16.296875 C 8.40625 -16.296875 7.785156 -16.242188 7.109375 -16.140625 C 6.429688 -16.046875 5.800781 -15.878906 5.21875 -15.640625 C 4.632812 -15.398438 4.144531 -15.085938 3.75 -14.703125 C 3.351562 -14.328125 3.15625 -13.847656 3.15625 -13.265625 C 3.15625 -12.753906 3.316406 -12.347656 3.640625 -12.046875 C 3.972656 -11.742188 4.414062 -11.488281 4.96875 -11.28125 C 5.53125 -11.082031 6.171875 -10.925781 6.890625 -10.8125 C 7.609375 -10.695312 8.363281 -10.585938 9.15625 -10.484375 C 10.144531 -10.335938 11.140625 -10.164062 12.140625 -9.96875 C 13.148438 -9.78125 14.066406 -9.5 14.890625 -9.125 C 15.710938 -8.75 16.375 -8.234375 16.875 -7.578125 C 17.382812 -6.929688 17.640625 -6.078125 17.640625 -5.015625 Z M 17.640625 -5.015625 "/></g></g></g><g fill="#ffffff" fill-opacity="1"><g transform="translate(157.568769, 220.090805)"><g><path d="M 18.28125 -6.65625 C 17.613281 -4.476562 16.53125 -2.75 15.03125 -1.46875 C 13.53125 -0.1875 11.640625 0.453125 9.359375 0.453125 C 7.578125 0.453125 6.070312 0.0859375 4.84375 -0.640625 C 3.613281 -1.378906 2.601562 -2.351562 1.8125 -3.5625 C 1.03125 -4.769531 0.46875 -6.160156 0.125 -7.734375 C -0.21875 -9.316406 -0.390625 -10.957031 -0.390625 -12.65625 C -0.390625 -14.351562 -0.21875 -15.992188 0.125 -17.578125 C 0.46875 -19.160156 1.03125 -20.5625 1.8125 -21.78125 C 2.601562 -23 3.613281 -23.972656 4.84375 -24.703125 C 6.070312 -25.441406 7.578125 -25.8125 9.359375 -25.8125 C 10.921875 -25.8125 12.257812 -25.53125 13.375 -24.96875 C 14.488281 -24.414062 15.3125 -23.566406 15.84375 -22.421875 L 15.84375 -25.375 L 18.125 -25.375 L 18.125 -17.0625 L 15.84375 -17.0625 C 15.84375 -17.945312 15.671875 -18.789062 15.328125 -19.59375 C 14.984375 -20.394531 14.519531 -21.085938 13.9375 -21.671875 C 13.351562 -22.253906 12.660156 -22.707031 11.859375 -23.03125 C 11.066406 -23.363281 10.234375 -23.53125 9.359375 -23.53125 C 7.984375 -23.53125 6.84375 -23.207031 5.9375 -22.5625 C 5.039062 -21.914062 4.316406 -21.066406 3.765625 -20.015625 C 3.222656 -18.960938 2.835938 -17.789062 2.609375 -16.5 C 2.390625 -15.21875 2.28125 -13.9375 2.28125 -12.65625 C 2.28125 -11.382812 2.390625 -10.101562 2.609375 -8.8125 C 2.835938 -7.53125 3.222656 -6.375 3.765625 -5.34375 C 4.316406 -4.3125 5.039062 -3.46875 5.9375 -2.8125 C 6.84375 -2.15625 7.984375 -1.828125 9.359375 -1.828125 C 12.515625 -1.828125 14.71875 -3.738281 15.96875 -7.5625 Z M 18.28125 -6.65625 "/></g></g></g><g fill="#ffffff" fill-opacity="1"><g transform="translate(179.309797, 220.090805)"><g><path d="M -0.03125 -4.90625 C -0.03125 -6.039062 0.25 -6.992188 0.8125 -7.765625 C 1.382812 -8.535156 2.132812 -9.144531 3.0625 -9.59375 C 3.988281 -10.039062 5.050781 -10.363281 6.25 -10.5625 C 7.445312 -10.769531 8.671875 -10.875 9.921875 -10.875 C 10.398438 -10.875 10.828125 -10.863281 11.203125 -10.84375 C 11.585938 -10.832031 11.953125 -10.8125 12.296875 -10.78125 C 12.640625 -10.757812 12.984375 -10.726562 13.328125 -10.6875 C 13.679688 -10.65625 14.066406 -10.613281 14.484375 -10.5625 L 14.484375 -11.859375 C 14.484375 -12.742188 14.289062 -13.46875 13.90625 -14.03125 C 13.53125 -14.601562 13.0625 -15.054688 12.5 -15.390625 C 11.945312 -15.722656 11.363281 -15.957031 10.75 -16.09375 C 10.144531 -16.226562 9.628906 -16.296875 9.203125 -16.296875 C 7.847656 -16.296875 6.597656 -16.113281 5.453125 -15.75 C 4.316406 -15.382812 3.257812 -14.898438 2.28125 -14.296875 L 1.0625 -16.296875 C 2.15625 -16.953125 3.378906 -17.488281 4.734375 -17.90625 C 6.085938 -18.332031 7.578125 -18.546875 9.203125 -18.546875 C 10.179688 -18.546875 11.144531 -18.421875 12.09375 -18.171875 C 13.050781 -17.921875 13.910156 -17.53125 14.671875 -17 C 15.429688 -16.476562 16.035156 -15.789062 16.484375 -14.9375 C 16.941406 -14.082031 17.171875 -13.054688 17.171875 -11.859375 L 17.171875 0 L 14.484375 0 L 14.484375 -3.03125 C 14.015625 -2.445312 13.484375 -1.9375 12.890625 -1.5 C 12.304688 -1.0625 11.691406 -0.703125 11.046875 -0.421875 C 10.398438 -0.140625 9.75 0.0703125 9.09375 0.21875 C 8.445312 0.375 7.832031 0.453125 7.25 0.453125 C 4.851562 0.453125 3.039062 -0.00390625 1.8125 -0.921875 C 0.582031 -1.847656 -0.03125 -3.175781 -0.03125 -4.90625 Z M 7.25 -1.828125 C 8.363281 -1.828125 9.363281 -1.988281 10.25 -2.3125 C 11.144531 -2.644531 11.898438 -3.054688 12.515625 -3.546875 C 13.140625 -4.046875 13.625 -4.570312 13.96875 -5.125 C 14.3125 -5.6875 14.484375 -6.195312 14.484375 -6.65625 L 14.484375 -8.359375 C 13.617188 -8.492188 12.785156 -8.566406 11.984375 -8.578125 C 11.191406 -8.585938 10.503906 -8.59375 9.921875 -8.59375 C 8.960938 -8.59375 8.035156 -8.523438 7.140625 -8.390625 C 6.253906 -8.265625 5.476562 -8.054688 4.8125 -7.765625 C 4.15625 -7.472656 3.625 -7.09375 3.21875 -6.625 C 2.820312 -6.164062 2.625 -5.59375 2.625 -4.90625 C 2.625 -4.132812 2.992188 -3.425781 3.734375 -2.78125 C 4.484375 -2.144531 5.65625 -1.828125 7.25 -1.828125 Z M 7.25 -1.828125 "/></g></g></g><g fill="#ffffff" fill-opacity="1"><g transform="translate(201.050825, 220.090805)"><g><path d="M 18.3125 -5.78125 C 18.113281 -3.875 17.367188 -2.359375 16.078125 -1.234375 C 14.785156 -0.109375 13.171875 0.453125 11.234375 0.453125 C 10.171875 0.453125 9.195312 0.273438 8.3125 -0.078125 C 7.4375 -0.429688 6.6875 -0.914062 6.0625 -1.53125 C 5.445312 -2.15625 4.96875 -2.90625 4.625 -3.78125 C 4.28125 -4.65625 4.109375 -5.613281 4.109375 -6.65625 L 4.109375 -15.84375 L 0 -15.84375 L 0 -18.125 L 4.109375 -18.125 L 4.109375 -25.375 L 6.765625 -25.375 L 6.765625 -18.125 L 14.484375 -18.125 L 14.484375 -15.84375 L 6.765625 -15.84375 L 6.765625 -6.65625 C 6.765625 -5.988281 6.867188 -5.363281 7.078125 -4.78125 C 7.296875 -4.195312 7.597656 -3.6875 7.984375 -3.25 C 8.367188 -2.8125 8.832031 -2.460938 9.375 -2.203125 C 9.914062 -1.953125 10.535156 -1.828125 11.234375 -1.828125 C 12.554688 -1.828125 13.660156 -2.238281 14.546875 -3.0625 C 15.441406 -3.882812 15.953125 -4.953125 16.078125 -6.265625 Z M 18.3125 -5.78125 "/></g></g></g><g fill="#ffffff" fill-opacity="1"><g transform="translate(222.791853, 220.090805)"><g><path d="M -0.03125 -4.90625 C -0.03125 -6.039062 0.25 -6.992188 0.8125 -7.765625 C 1.382812 -8.535156 2.132812 -9.144531 3.0625 -9.59375 C 3.988281 -10.039062 5.050781 -10.363281 6.25 -10.5625 C 7.445312 -10.769531 8.671875 -10.875 9.921875 -10.875 C 10.398438 -10.875 10.828125 -10.863281 11.203125 -10.84375 C 11.585938 -10.832031 11.953125 -10.8125 12.296875 -10.78125 C 12.640625 -10.757812 12.984375 -10.726562 13.328125 -10.6875 C 13.679688 -10.65625 14.066406 -10.613281 14.484375 -10.5625 L 14.484375 -11.859375 C 14.484375 -12.742188 14.289062 -13.46875 13.90625 -14.03125 C 13.53125 -14.601562 13.0625 -15.054688 12.5 -15.390625 C 11.945312 -15.722656 11.363281 -15.957031 10.75 -16.09375 C 10.144531 -16.226562 9.628906 -16.296875 9.203125 -16.296875 C 7.847656 -16.296875 6.597656 -16.113281 5.453125 -15.75 C 4.316406 -15.382812 3.257812 -14.898438 2.28125 -14.296875 L 1.0625 -16.296875 C 2.15625 -16.953125 3.378906 -17.488281 4.734375 -17.90625 C 6.085938 -18.332031 7.578125 -18.546875 9.203125 -18.546875 C 10.179688 -18.546875 11.144531 -18.421875 12.09375 -18.171875 C 13.050781 -17.921875 13.910156 -17.53125 14.671875 -17 C 15.429688 -16.476562 16.035156 -15.789062 16.484375 -14.9375 C 16.941406 -14.082031 17.171875 -13.054688 17.171875 -11.859375 L 17.171875 0 L 14.484375 0 L 14.484375 -3.03125 C 14.015625 -2.445312 13.484375 -1.9375 12.890625 -1.5 C 12.304688 -1.0625 11.691406 -0.703125 11.046875 -0.421875 C 10.398438 -0.140625 9.75 0.0703125 9.09375 0.21875 C 8.445312 0.375 7.832031 0.453125 7.25 0.453125 C 4.851562 0.453125 3.039062 -0.00390625 1.8125 -0.921875 C 0.582031 -1.847656 -0.03125 -3.175781 -0.03125 -4.90625 Z M 7.25 -1.828125 C 8.363281 -1.828125 9.363281 -1.988281 10.25 -2.3125 C 11.144531 -2.644531 11.898438 -3.054688 12.515625 -3.546875 C 13.140625 -4.046875 13.625 -4.570312 13.96875 -5.125 C 14.3125 -5.6875 14.484375 -6.195312 14.484375 -6.65625 L 14.484375 -8.359375 C 13.617188 -8.492188 12.785156 -8.566406 11.984375 -8.578125 C 11.191406 -8.585938 10.503906 -8.59375 9.921875 -8.59375 C 8.960938 -8.59375 8.035156 -8.523438 7.140625 -8.390625 C 6.253906 -8.265625 5.476562 -8.054688 4.8125 -7.765625 C 4.15625 -7.472656 3.625 -7.09375 3.21875 -6.625 C 2.820312 -6.164062 2.625 -5.59375 2.625 -4.90625 C 2.625 -4.132812 2.992188 -3.425781 3.734375 -2.78125 C 4.484375 -2.144531 5.65625 -1.828125 7.25 -1.828125 Z M 7.25 -1.828125 "/></g></g></g><g fill="#ffffff" fill-opacity="1"><g transform="translate(244.532881, 220.090805)"><g><path d="M 18.125 0 L 15.453125 0 L 15.453125 -13.03125 C 15.453125 -14.0625 15.269531 -14.863281 14.90625 -15.4375 C 14.550781 -16.007812 14.03125 -16.296875 13.34375 -16.296875 C 12.332031 -16.296875 11.585938 -15.765625 11.109375 -14.703125 C 10.640625 -13.640625 10.40625 -12.148438 10.40625 -10.234375 L 10.40625 0 L 7.71875 0 L 7.71875 -13.03125 C 7.71875 -14.0625 7.53125 -14.863281 7.15625 -15.4375 C 6.789062 -16.007812 6.265625 -16.296875 5.578125 -16.296875 C 4.941406 -16.296875 4.4375 -16.109375 4.0625 -15.734375 C 3.6875 -15.359375 3.390625 -14.878906 3.171875 -14.296875 C 2.960938 -13.710938 2.828125 -13.0625 2.765625 -12.34375 C 2.703125 -11.632812 2.671875 -10.929688 2.671875 -10.234375 L 2.671875 0 L 0 0 L 0 -18.125 L 2.671875 -18.125 L 2.671875 -15.5 C 3.222656 -17.53125 4.429688 -18.546875 6.296875 -18.546875 C 8.078125 -18.546875 9.285156 -17.660156 9.921875 -15.890625 C 10.796875 -17.660156 12.039062 -18.546875 13.65625 -18.546875 C 15.195312 -18.546875 16.328125 -18.085938 17.046875 -17.171875 C 17.765625 -16.265625 18.125 -14.882812 18.125 -13.03125 Z M 18.125 0 "/></g></g></g><g fill="#ffffff" fill-opacity="1"><g transform="translate(266.273909, 220.090805)"><g><path d="M -0.03125 -4.90625 C -0.03125 -6.039062 0.25 -6.992188 0.8125 -7.765625 C 1.382812 -8.535156 2.132812 -9.144531 3.0625 -9.59375 C 3.988281 -10.039062 5.050781 -10.363281 6.25 -10.5625 C 7.445312 -10.769531 8.671875 -10.875 9.921875 -10.875 C 10.398438 -10.875 10.828125 -10.863281 11.203125 -10.84375 C 11.585938 -10.832031 11.953125 -10.8125 12.296875 -10.78125 C 12.640625 -10.757812 12.984375 -10.726562 13.328125 -10.6875 C 13.679688 -10.65625 14.066406 -10.613281 14.484375 -10.5625 L 14.484375 -11.859375 C 14.484375 -12.742188 14.289062 -13.46875 13.90625 -14.03125 C 13.53125 -14.601562 13.0625 -15.054688 12.5 -15.390625 C 11.945312 -15.722656 11.363281 -15.957031 10.75 -16.09375 C 10.144531 -16.226562 9.628906 -16.296875 9.203125 -16.296875 C 7.847656 -16.296875 6.597656 -16.113281 5.453125 -15.75 C 4.316406 -15.382812 3.257812 -14.898438 2.28125 -14.296875 L 1.0625 -16.296875 C 2.15625 -16.953125 3.378906 -17.488281 4.734375 -17.90625 C 6.085938 -18.332031 7.578125 -18.546875 9.203125 -18.546875 C 10.179688 -18.546875 11.144531 -18.421875 12.09375 -18.171875 C 13.050781 -17.921875 13.910156 -17.53125 14.671875 -17 C 15.429688 -16.476562 16.035156 -15.789062 16.484375 -14.9375 C 16.941406 -14.082031 17.171875 -13.054688 17.171875 -11.859375 L 17.171875 0 L 14.484375 0 L 14.484375 -3.03125 C 14.015625 -2.445312 13.484375 -1.9375 12.890625 -1.5 C 12.304688 -1.0625 11.691406 -0.703125 11.046875 -0.421875 C 10.398438 -0.140625 9.75 0.0703125 9.09375 0.21875 C 8.445312 0.375 7.832031 0.453125 7.25 0.453125 C 4.851562 0.453125 3.039062 -0.00390625 1.8125 -0.921875 C 0.582031 -1.847656 -0.03125 -3.175781 -0.03125 -4.90625 Z M 7.25 -1.828125 C 8.363281 -1.828125 9.363281 -1.988281 10.25 -2.3125 C 11.144531 -2.644531 11.898438 -3.054688 12.515625 -3.546875 C 13.140625 -4.046875 13.625 -4.570312 13.96875 -5.125 C 14.3125 -5.6875 14.484375 -6.195312 14.484375 -6.65625 L 14.484375 -8.359375 C 13.617188 -8.492188 12.785156 -8.566406 11.984375 -8.578125 C 11.191406 -8.585938 10.503906 -8.59375 9.921875 -8.59375 C 8.960938 -8.59375 8.035156 -8.523438 7.140625 -8.390625 C 6.253906 -8.265625 5.476562 -8.054688 4.8125 -7.765625 C 4.15625 -7.472656 3.625 -7.09375 3.21875 -6.625 C 2.820312 -6.164062 2.625 -5.59375 2.625 -4.90625 C 2.625 -4.132812 2.992188 -3.425781 3.734375 -2.78125 C 4.484375 -2.144531 5.65625 -1.828125 7.25 -1.828125 Z M 7.25 -1.828125 "/></g></g></g><g fill="#ffffff" fill-opacity="1"><g transform="translate(288.014937, 220.090805)"><g><path d="M 17.140625 -15.578125 C 16.171875 -16.054688 15.023438 -16.296875 13.703125 -16.296875 C 12.617188 -16.296875 11.648438 -16.0625 10.796875 -15.59375 C 9.941406 -15.125 9.210938 -14.507812 8.609375 -13.75 C 8.015625 -13 7.554688 -12.132812 7.234375 -11.15625 C 6.921875 -10.175781 6.765625 -9.164062 6.765625 -8.125 L 6.765625 -2.28125 L 10.875 -2.28125 L 10.875 0 L 0 0 L 0 -2.28125 L 4.109375 -2.28125 L 4.109375 -15.84375 L 0 -15.84375 L 0 -18.125 L 6.765625 -18.125 L 6.765625 -13.578125 C 7.984375 -16.890625 10.296875 -18.546875 13.703125 -18.546875 C 14.628906 -18.546875 15.429688 -18.488281 16.109375 -18.375 C 16.796875 -18.257812 17.429688 -18.050781 18.015625 -17.75 Z M 17.140625 -15.578125 "/></g></g></g><g fill="#ffffff" fill-opacity="1"><g transform="translate(309.755965, 220.090805)"><g><path d="M -0.03125 -4.90625 C -0.03125 -6.039062 0.25 -6.992188 0.8125 -7.765625 C 1.382812 -8.535156 2.132812 -9.144531 3.0625 -9.59375 C 3.988281 -10.039062 5.050781 -10.363281 6.25 -10.5625 C 7.445312 -10.769531 8.671875 -10.875 9.921875 -10.875 C 10.398438 -10.875 10.828125 -10.863281 11.203125 -10.84375 C 11.585938 -10.832031 11.953125 -10.8125 12.296875 -10.78125 C 12.640625 -10.757812 12.984375 -10.726562 13.328125 -10.6875 C 13.679688 -10.65625 14.066406 -10.613281 14.484375 -10.5625 L 14.484375 -11.859375 C 14.484375 -12.742188 14.289062 -13.46875 13.90625 -14.03125 C 13.53125 -14.601562 13.0625 -15.054688 12.5 -15.390625 C 11.945312 -15.722656 11.363281 -15.957031 10.75 -16.09375 C 10.144531 -16.226562 9.628906 -16.296875 9.203125 -16.296875 C 7.847656 -16.296875 6.597656 -16.113281 5.453125 -15.75 C 4.316406 -15.382812 3.257812 -14.898438 2.28125 -14.296875 L 1.0625 -16.296875 C 2.15625 -16.953125 3.378906 -17.488281 4.734375 -17.90625 C 6.085938 -18.332031 7.578125 -18.546875 9.203125 -18.546875 C 10.179688 -18.546875 11.144531 -18.421875 12.09375 -18.171875 C 13.050781 -17.921875 13.910156 -17.53125 14.671875 -17 C 15.429688 -16.476562 16.035156 -15.789062 16.484375 -14.9375 C 16.941406 -14.082031 17.171875 -13.054688 17.171875 -11.859375 L 17.171875 0 L 14.484375 0 L 14.484375 -3.03125 C 14.015625 -2.445312 13.484375 -1.9375 12.890625 -1.5 C 12.304688 -1.0625 11.691406 -0.703125 11.046875 -0.421875 C 10.398438 -0.140625 9.75 0.0703125 9.09375 0.21875 C 8.445312 0.375 7.832031 0.453125 7.25 0.453125 C 4.851562 0.453125 3.039062 -0.00390625 1.8125 -0.921875 C 0.582031 -1.847656 -0.03125 -3.175781 -0.03125 -4.90625 Z M 7.25 -1.828125 C 8.363281 -1.828125 9.363281 -1.988281 10.25 -2.3125 C 11.144531 -2.644531 11.898438 -3.054688 12.515625 -3.546875 C 13.140625 -4.046875 13.625 -4.570312 13.96875 -5.125 C 14.3125 -5.6875 14.484375 -6.195312 14.484375 -6.65625 L 14.484375 -8.359375 C 13.617188 -8.492188 12.785156 -8.566406 11.984375 -8.578125 C 11.191406 -8.585938 10.503906 -8.59375 9.921875 -8.59375 C 8.960938 -8.59375 8.035156 -8.523438 7.140625 -8.390625 C 6.253906 -8.265625 5.476562 -8.054688 4.8125 -7.765625 C 4.15625 -7.472656 3.625 -7.09375 3.21875 -6.625 C 2.820312 -6.164062 2.625 -5.59375 2.625 -4.90625 C 2.625 -4.132812 2.992188 -3.425781 3.734375 -2.78125 C 4.484375 -2.144531 5.65625 -1.828125 7.25 -1.828125 Z M 7.25 -1.828125 "/></g></g></g><g fill="#ffffff" fill-opacity="1"><g transform="translate(331.496993, 220.090805)"><g><path d="M 17.171875 0 L 14.484375 0 L 14.484375 -11.1875 C 14.484375 -12.800781 14.132812 -14.054688 13.4375 -14.953125 C 12.738281 -15.847656 11.601562 -16.296875 10.03125 -16.296875 C 9.050781 -16.296875 8.160156 -16.066406 7.359375 -15.609375 C 6.566406 -15.160156 5.890625 -14.554688 5.328125 -13.796875 C 4.773438 -13.035156 4.351562 -12.164062 4.0625 -11.1875 C 3.769531 -10.207031 3.625 -9.1875 3.625 -8.125 L 3.625 0 L 0.953125 0 L 0.953125 -18.125 L 3.625 -18.125 L 3.625 -13.578125 C 4.90625 -16.890625 7.191406 -18.546875 10.484375 -18.546875 C 14.941406 -18.546875 17.171875 -16.09375 17.171875 -11.1875 Z M 17.171875 0 "/></g></g></g><g fill="#ffffff" fill-opacity="1"><g transform="translate(353.238021, 220.090805)"><g><path d="M 17.640625 -5.015625 C 17.640625 -3.953125 17.375 -3.070312 16.84375 -2.375 C 16.3125 -1.675781 15.625 -1.117188 14.78125 -0.703125 C 13.945312 -0.285156 13.015625 0.0078125 11.984375 0.1875 C 10.953125 0.363281 9.945312 0.453125 8.96875 0.453125 C 7.320312 0.453125 5.679688 0.210938 4.046875 -0.265625 C 2.410156 -0.742188 1 -1.375 -0.1875 -2.15625 L 0.984375 -4.453125 C 2.328125 -3.609375 3.644531 -2.957031 4.9375 -2.5 C 6.238281 -2.050781 7.582031 -1.828125 8.96875 -1.828125 C 12.96875 -1.828125 14.96875 -2.863281 14.96875 -4.9375 C 14.96875 -5.445312 14.800781 -5.859375 14.46875 -6.171875 C 14.144531 -6.492188 13.703125 -6.753906 13.140625 -6.953125 C 12.585938 -7.148438 11.953125 -7.304688 11.234375 -7.421875 C 10.515625 -7.546875 9.757812 -7.660156 8.96875 -7.765625 C 7.957031 -7.898438 6.953125 -8.066406 5.953125 -8.265625 C 4.953125 -8.460938 4.039062 -8.753906 3.21875 -9.140625 C 2.394531 -9.523438 1.734375 -10.039062 1.234375 -10.6875 C 0.734375 -11.34375 0.484375 -12.203125 0.484375 -13.265625 C 0.484375 -14.171875 0.710938 -14.953125 1.171875 -15.609375 C 1.628906 -16.273438 2.242188 -16.828125 3.015625 -17.265625 C 3.796875 -17.710938 4.703125 -18.035156 5.734375 -18.234375 C 6.773438 -18.441406 7.851562 -18.546875 8.96875 -18.546875 C 10.5625 -18.546875 11.984375 -18.359375 13.234375 -17.984375 C 14.492188 -17.617188 15.628906 -17.09375 16.640625 -16.40625 L 15.578125 -14.328125 C 14.535156 -15.054688 13.484375 -15.566406 12.421875 -15.859375 C 11.359375 -16.148438 10.207031 -16.296875 8.96875 -16.296875 C 8.40625 -16.296875 7.785156 -16.242188 7.109375 -16.140625 C 6.429688 -16.046875 5.800781 -15.878906 5.21875 -15.640625 C 4.632812 -15.398438 4.144531 -15.085938 3.75 -14.703125 C 3.351562 -14.328125 3.15625 -13.847656 3.15625 -13.265625 C 3.15625 -12.753906 3.316406 -12.347656 3.640625 -12.046875 C 3.972656 -11.742188 4.414062 -11.488281 4.96875 -11.28125 C 5.53125 -11.082031 6.171875 -10.925781 6.890625 -10.8125 C 7.609375 -10.695312 8.363281 -10.585938 9.15625 -10.484375 C 10.144531 -10.335938 11.140625 -10.164062 12.140625 -9.96875 C 13.148438 -9.78125 14.066406 -9.5 14.890625 -9.125 C 15.710938 -8.75 16.375 -8.234375 16.875 -7.578125 C 17.382812 -6.929688 17.640625 -6.078125 17.640625 -5.015625 Z M 17.640625 -5.015625 "/></g></g></g></svg>